<?xml version="1.0" standalone="no"?>
<!DOCTYPE svg PUBLIC "-//W3C//DTD SVG 1.1//EN" "http://www.w3.org/Graphics/SVG/1.1/DTD/svg11.dtd" >
<svg xmlns="http://www.w3.org/2000/svg">
<metadata>Generated by IcoMoon</metadata>
<defs>
<font id="marketplace" horiz-adv-x="1024">
<font-face units-per-em="1024" ascent="960" descent="-64" />
<missing-glyph horiz-adv-x="1024" />
<glyph unicode="&#x20;" horiz-adv-x="512" d="" />
<glyph unicode="&#xe900;" glyph-name="avatar" d="M512 719.238c-36.167 0-71.519-10.725-101.59-30.817s-53.507-48.65-67.347-82.064c-13.84-33.413-17.462-70.179-10.406-105.65s24.471-68.051 50.043-93.627c25.574-25.57 58.155-42.988 93.625-50.040 35.47-7.056 72.235-3.438 105.652 10.406 33.411 13.839 61.971 37.273 82.062 67.345 20.095 30.072 30.817 65.424 30.817 101.591 0 48.497-19.266 95.007-53.555 129.299-34.294 34.293-80.803 53.558-129.301 53.558zM512 938.666c-101.264 0-200.253-30.029-284.451-86.288s-149.823-136.223-188.575-229.778c-38.752-93.556-48.891-196.499-29.136-295.818s68.519-190.552 140.123-262.154c71.603-71.607 162.834-120.369 262.153-140.122 99.32-19.759 202.266-9.621 295.82 29.135 93.554 38.751 173.519 104.375 229.776 188.572 56.262 84.198 86.289 183.188 86.289 284.452-0.155 135.743-54.145 265.882-150.131 361.867-95.983 95.985-226.123 149.977-361.867 150.131v0zM804.278 100.232c-0.727 47.971-20.275 93.735-54.423 127.43-34.147 33.699-80.164 52.628-128.141 52.721h-219.428c-47.975-0.093-93.995-19.022-128.143-52.721-34.149-33.695-53.692-79.457-54.422-127.43-66.32 59.216-113.089 137.181-134.113 223.573s-15.313 177.128 16.377 260.198c31.69 83.071 87.866 154.557 161.087 204.993s160.035 77.441 248.947 77.441c88.907 0 175.723-27.006 248.944-77.441s129.4-121.922 161.090-204.993c31.69-83.071 37.4-173.807 16.374-260.198-21.022-86.392-67.793-164.356-134.109-223.573h-0.039z" />
<glyph unicode="&#xe901;" glyph-name="arr-up" d="M512 170.667c-8.486 0-16.627 3.371-22.63 9.374-5.999 5.999-9.37 14.14-9.37 22.626v370.752l-137.345-137.408c-6.009-6.007-14.159-9.382-22.656-9.382s-16.647 3.375-22.656 9.382c-6.009 6.007-9.385 14.157-9.385 22.656s3.376 16.649 9.385 22.656l192.001 192c2.97 2.98 6.502 5.344 10.389 6.958s8.055 2.444 12.267 2.444c4.207 0 8.375-0.83 12.262-2.444s7.42-3.978 10.394-6.958l192-192c6.007-6.007 9.382-14.157 9.382-22.656s-3.375-16.649-9.382-22.656c-6.012-6.007-14.161-9.382-22.656-9.382-8.499 0-16.649 3.375-22.656 9.382l-137.344 137.408v-370.752c0-8.486-3.371-16.627-9.374-22.626-6.003-6.003-14.14-9.374-22.626-9.374z" />
<glyph unicode="&#xe902;" glyph-name="plus-circle" d="M512-21.333c-118.817 0-232.768 47.198-316.784 131.217-84.016 84.015-131.216 197.965-131.216 316.783s47.2 232.768 131.216 316.784 197.967 131.216 316.784 131.216c118.818 0 232.768-47.2 316.783-131.216 84.019-84.016 131.217-197.967 131.217-316.784s-47.198-232.768-131.217-316.783c-84.015-84.019-197.965-131.217-316.783-131.217zM512-85.333c135.791 0 266.018 53.943 362.039 149.961 96.017 96.021 149.961 226.249 149.961 362.039s-53.943 266.020-149.961 362.039c-96.021 96.019-226.249 149.961-362.039 149.961s-266.020-53.943-362.039-149.961c-96.019-96.019-149.961-226.248-149.961-362.039s53.943-266.018 149.961-362.039c96.019-96.017 226.248-149.961 362.039-149.961v0zM512 682.667c8.486 0 16.627-3.372 22.626-9.373 6.003-6.001 9.374-14.141 9.374-22.627v-192h192c8.486 0 16.627-3.371 22.626-9.374 6.003-5.999 9.374-14.14 9.374-22.626s-3.371-16.627-9.374-22.626c-5.999-6.003-14.14-9.374-22.626-9.374h-192v-192c0-8.486-3.371-16.627-9.374-22.626-5.999-6.003-14.14-9.374-22.626-9.374s-16.627 3.371-22.626 9.374c-6.003 5.999-9.374 14.14-9.374 22.626v192h-192c-8.487 0-16.626 3.371-22.627 9.374-6.001 5.999-9.373 14.14-9.373 22.626s3.372 16.627 9.373 22.626c6.001 6.003 14.141 9.374 22.627 9.374h192v192c0 8.487 3.371 16.626 9.374 22.627 5.999 6.001 14.14 9.373 22.626 9.373v0z" />
<glyph unicode="&#xe903;" glyph-name="arr-left" d="M768 426.667c0-8.486-3.371-16.627-9.374-22.63-5.999-5.999-14.14-9.37-22.626-9.37h-370.752l137.408-137.344c6.007-6.012 9.382-14.161 9.382-22.656 0-8.499-3.375-16.649-9.382-22.656-6.007-6.012-14.157-9.387-22.656-9.387s-16.649 3.375-22.656 9.387l-192 192c-2.98 2.97-5.344 6.502-6.958 10.389s-2.444 8.055-2.444 12.267c0 4.207 0.83 8.375 2.444 12.262s3.978 7.42 6.958 10.394l192 191.999c6.007 6.009 14.157 9.385 22.656 9.385s16.649-3.376 22.656-9.385c6.007-6.009 9.382-14.158 9.382-22.656s-3.375-16.647-9.382-22.656l-137.408-137.343h370.752c8.486 0 16.627-3.371 22.626-9.374 6.003-6.003 9.374-14.14 9.374-22.626z" />
<glyph unicode="&#xe904;" glyph-name="arr-down" d="M512 682.667c8.486 0 16.627-3.372 22.63-9.373 5.999-6.001 9.37-14.141 9.37-22.627v-370.752l137.344 137.408c6.012 6.007 14.161 9.382 22.656 9.382 8.499 0 16.649-3.375 22.656-9.382 6.012-6.007 9.387-14.157 9.387-22.656s-3.375-16.649-9.387-22.656l-192-192c-2.97-2.978-6.502-5.346-10.389-6.959s-8.055-2.441-12.267-2.441c-4.207 0-8.375 0.828-12.262 2.441s-7.42 3.981-10.394 6.959l-191.999 192c-6.009 6.007-9.385 14.157-9.385 22.656s3.376 16.649 9.385 22.656c6.009 6.007 14.158 9.382 22.656 9.382s16.647-3.375 22.656-9.382l137.343-137.408v370.752c0 8.487 3.371 16.626 9.374 22.627s14.14 9.373 22.626 9.373z" />
<glyph unicode="&#xe905;" glyph-name="trash" d="M384 490.667c5.658 0 11.084-2.249 15.085-6.246 4.001-4.002 6.249-9.429 6.249-15.087v-256c0-5.658-2.248-11.085-6.249-15.087-4-3.998-9.427-6.246-15.085-6.246s-11.084 2.249-15.085 6.246c-4.001 4.002-6.249 9.429-6.249 15.087v256c0 5.658 2.248 11.085 6.249 15.087 4 3.998 9.427 6.246 15.085 6.246zM490.667 490.667c5.658 0 11.085-2.249 15.087-6.246 3.998-4.002 6.246-9.429 6.246-15.087v-256c0-5.658-2.249-11.085-6.246-15.087-4.002-3.998-9.429-6.246-15.087-6.246s-11.085 2.249-15.087 6.246c-3.998 4.002-6.246 9.429-6.246 15.087v256c0 5.658 2.249 11.085 6.246 15.087 4.002 3.998 9.429 6.246 15.087 6.246zM618.667 469.334c0 5.658-2.249 11.085-6.246 15.087-4.002 3.998-9.429 6.246-15.087 6.246s-11.085-2.249-15.087-6.246c-3.998-4.002-6.246-9.429-6.246-15.087v-256c0-5.658 2.249-11.085 6.246-15.087 4.002-3.998 9.429-6.246 15.087-6.246s11.085 2.249 15.087 6.246c3.998 4.002 6.246 9.429 6.246 15.087v256zM768 597.334c0-11.316-4.497-22.168-12.497-30.17s-18.854-12.497-30.17-12.497h-21.333v-384c0-22.63-8.99-44.335-24.994-60.339s-37.709-24.994-60.339-24.994h-256c-22.632 0-44.337 8.99-60.34 24.994s-24.994 37.709-24.994 60.339v384h-21.333c-11.316 0-22.168 4.495-30.17 12.497s-12.497 18.854-12.497 30.17v42.667c0 11.316 4.495 22.168 12.497 30.17s18.854 12.497 30.17 12.497h149.333c0 11.316 4.495 22.168 12.497 30.17s18.855 12.497 30.17 12.497h85.333c11.315 0 22.17-4.495 30.17-12.497s12.497-18.854 12.497-30.17h149.333c11.315 0 22.17-4.495 30.17-12.497s12.497-18.854 12.497-30.17v-42.667zM325.035 554.667l-5.035-2.517v-381.483c0-11.315 4.495-22.17 12.497-30.17s18.854-12.497 30.17-12.497h256c11.315 0 22.17 4.497 30.17 12.497s12.497 18.854 12.497 30.17v381.483l-5.035 2.517h-331.264zM256 597.334h469.333v42.667h-469.333v-42.667z" />
<glyph unicode="&#xe906;" glyph-name="warning" d="M512 90.667c-89.113 0-174.576 35.401-237.588 98.411-63.012 63.014-98.412 148.476-98.412 237.589s35.4 174.576 98.412 237.588c63.012 63.012 148.475 98.412 237.588 98.412s174.575-35.4 237.589-98.412c63.010-63.012 98.411-148.475 98.411-237.588s-35.401-174.575-98.411-237.589c-63.014-63.010-148.476-98.411-237.589-98.411zM512 42.667c101.841 0 199.514 40.457 271.531 112.469 72.013 72.017 112.469 169.69 112.469 271.531 0 101.843-40.457 199.515-112.469 271.529-72.017 72.014-169.69 112.471-271.531 112.471-101.843 0-199.515-40.457-271.529-112.471s-112.471-169.686-112.471-271.529c0-101.841 40.457-199.514 112.471-271.531 72.014-72.013 169.686-112.469 271.529-112.469zM464.094 282.667c0 6.302 1.242 12.544 3.652 18.368 2.415 5.824 5.948 11.115 10.406 15.573s9.749 7.991 15.573 10.406c5.824 2.411 12.066 3.652 18.368 3.652s12.544-1.242 18.368-3.652c5.824-2.415 11.115-5.948 15.573-10.406s7.991-9.749 10.406-15.573c2.411-5.824 3.652-12.066 3.652-18.368 0-12.732-5.056-24.939-14.059-33.941s-21.21-14.059-33.941-14.059c-12.732 0-24.939 5.056-33.941 14.059s-14.059 21.21-14.059 33.941zM468.796 570.907c-0.636 6.055 0.004 12.178 1.882 17.969 1.882 5.792 4.958 11.124 9.033 15.65s9.054 8.145 14.613 10.623c5.564 2.477 11.584 3.758 17.673 3.758 6.093 0 12.113-1.28 17.677-3.758 5.559-2.478 10.539-6.097 14.613-10.623s7.151-9.858 9.028-15.65c1.882-5.792 2.522-11.914 1.882-17.969l-16.798-168.338c-0.563-6.613-3.593-12.77-8.478-17.263-4.89-4.489-11.285-6.976-17.924-6.976-6.635 0-13.030 2.487-17.92 6.976-4.89 4.493-7.915 10.65-8.478 17.263l-16.802 168.338z" />
<glyph unicode="&#xe907;" glyph-name="arr-chev-right" d="M417.37 259.857c-1.222 1.22-2.192 2.667-2.854 4.262s-1.003 3.302-1.003 5.030c0 1.728 0.341 3.435 1.003 5.030s1.632 3.042 2.854 4.262l148.254 148.228-148.254 148.225c-2.465 2.465-3.85 5.808-3.85 9.294s1.385 6.829 3.85 9.294c2.465 2.465 5.808 3.849 9.294 3.849s6.83-1.385 9.292-3.849l157.521-157.52c1.225-1.22 2.193-2.667 2.854-4.262s1.003-3.307 1.003-5.030c0-1.728-0.341-3.439-1.003-5.030-0.661-1.596-1.63-3.046-2.854-4.262l-157.521-157.521c-1.216-1.225-2.667-2.193-4.262-2.854-1.591-0.661-3.302-1.003-5.030-1.003s-3.436 0.341-5.031 1.003c-1.595 0.661-3.043 1.63-4.263 2.854z" />
<glyph unicode="&#xe908;" glyph-name="audio" d="M208.912 724.28c-76.704-75.852-123.579-180.148-123.579-296.035 0-115.883 45.809-223.339 123.579-299.191l76.704 75.853c-57.528 56.887-93.749 135.902-93.749 224.393 0 87.441 35.156 163.293 93.749 220.182l-76.704 75.852v-1.053zM815.087 724.28l-76.702-75.852c57.527-56.889 93.747-132.741 93.747-220.183 0-87.437-35.153-166.451-93.747-224.393l76.702-75.853c76.706 75.853 123.58 183.309 123.58 299.191 0 115.887-45.811 220.183-123.58 296.035v1.053zM362.32 575.737c-38.352-37.926-62.854-90.6-62.854-148.545 0-57.941 24.503-113.775 62.854-151.701l73.507 75.853c-19.175 18.961-29.828 46.353-29.828 75.849 0 29.5 10.653 52.676 29.828 72.691l-73.507 75.854zM661.679 575.737l-73.506-75.854c19.174-18.961 29.828-43.191 29.828-72.691 0-29.495-10.654-56.887-29.828-75.849l73.506-75.853c38.353 37.926 62.857 93.76 62.857 151.701 0 57.946-24.503 110.619-62.857 148.545z" />
<glyph unicode="&#xe909;" glyph-name="battery" d="M192 533.334h266.667v-213.333h-266.667v213.333zM192 640c-28.29 0-55.421-11.238-75.425-31.242s-31.242-47.135-31.242-75.425v-213.333c0-28.288 11.238-55.42 31.242-75.426 20.004-20.002 47.135-31.241 75.425-31.241h533.333c28.288 0 55.42 11.238 75.426 31.241 20.002 20.006 31.241 47.138 31.241 75.426v213.333c0 28.29-11.238 55.421-31.241 75.425-20.006 20.004-47.138 31.242-75.426 31.242h-533.333zM725.333 586.667c14.144 0 27.712-5.619 37.713-15.621s15.62-23.567 15.62-37.712v-213.333c0-14.144-5.619-27.712-15.62-37.713s-23.569-15.62-37.713-15.62h-533.333c-14.145 0-27.71 5.619-37.712 15.62s-15.621 23.569-15.621 37.713v213.333c0 14.145 5.619 27.71 15.621 37.712s23.567 15.621 37.712 15.621h533.333zM938.667 426.667c0-21.218-8.427-41.566-23.433-56.567-15.002-15.006-35.349-23.433-56.567-23.433v160c21.218 0 41.566-8.427 56.567-23.433 15.006-15.002 23.433-35.349 23.433-56.567z" />
<glyph unicode="&#xe90a;" glyph-name="bluetooth" d="M469.333-0v324.267l-196.267-196.267-59.733 59.733 238.933 238.933-238.933 238.933 59.733 59.733 196.267-196.267v324.267h42.667l243.2-243.2-183.467-183.467 183.467-183.467-243.2-243.2h-42.667zM554.667 529.067l81.067 81.067-81.067 78.933v-160zM554.667 164.267l81.067 78.933-81.067 81.067v-160z" />
<glyph unicode="&#xe90b;" glyph-name="camera" d="M885.333 192c0-14.144-5.619-27.712-15.62-37.713s-23.569-15.62-37.713-15.62h-640c-14.145 0-27.71 5.619-37.712 15.62s-15.621 23.569-15.621 37.713v320c0 14.145 5.619 27.71 15.621 37.712s23.567 15.621 37.712 15.621h62.507c42.413 0.023 83.081 16.885 113.067 46.88l44.267 44.16c9.973 9.977 23.492 15.596 37.602 15.627h125.009c14.144-0.003 27.708-5.624 37.709-15.627l44.16-44.16c14.861-14.865 32.503-26.656 51.921-34.7 19.422-8.044 40.235-12.183 61.252-12.18h62.507c14.144 0 27.712-5.619 37.713-15.621s15.62-23.567 15.62-37.712v-320zM192 618.667c-28.29 0-55.421-11.238-75.425-31.242s-31.242-47.135-31.242-75.425v-320c0-28.288 11.238-55.42 31.242-75.426 20.004-20.002 47.135-31.241 75.425-31.241h640c28.288 0 55.42 11.238 75.426 31.241 20.002 20.006 31.241 47.138 31.241 75.426v320c0 28.29-11.238 55.421-31.241 75.425-20.006 20.004-47.138 31.242-75.426 31.242h-62.507c-28.288 0.006-55.415 11.248-75.413 31.253l-44.16 44.16c-19.998 20.005-47.125 31.247-75.413 31.253h-125.013c-28.288-0.006-55.414-11.248-75.413-31.253l-44.16-44.16c-19.999-20.005-47.126-31.247-75.413-31.253h-62.507zM512 245.334c-35.362 0-69.278 14.046-94.281 39.053-25.005 25.003-39.052 58.918-39.052 94.281s14.048 69.278 39.052 94.281c25.003 25.007 58.919 39.053 94.281 39.053s69.278-14.046 94.281-39.053c25.007-25.003 39.053-58.918 39.053-94.281s-14.046-69.278-39.053-94.281c-25.003-25.007-58.918-39.053-94.281-39.053zM512 192c49.506 0 96.986 19.665 131.994 54.673s54.673 82.487 54.673 131.994c0 49.506-19.665 96.986-54.673 131.994-35.008 35.006-82.487 54.673-131.994 54.673s-96.986-19.667-131.993-54.673c-35.007-35.008-54.673-82.487-54.673-131.994s19.667-96.986 54.673-131.994c35.007-35.008 82.487-54.673 131.993-54.673zM245.333 485.334c0-7.074-2.81-13.854-7.811-18.854-5.001-5.005-11.784-7.812-18.856-7.812s-13.855 2.807-18.856 7.812c-5.001 5.001-7.811 11.78-7.811 18.854s2.81 13.854 7.811 18.854c5.001 5.005 11.784 7.812 18.856 7.812s13.855-2.807 18.856-7.812c5.001-5.001 7.811-11.78 7.811-18.854z" />
<glyph unicode="&#xe90c;" glyph-name="cpu" d="M352 853.334c7.072 0 13.855-2.81 18.856-7.811s7.811-11.784 7.811-18.856v-80h53.333v80c0 7.072 2.807 13.855 7.812 18.856 5.001 5.001 11.78 7.811 18.854 7.811s13.854-2.81 18.854-7.811c5.005-5.001 7.812-11.784 7.812-18.856v-80h53.333v80c0 7.072 2.807 13.855 7.812 18.856 5.001 5.001 11.78 7.811 18.854 7.811s13.854-2.81 18.854-7.811c5.005-5.001 7.812-11.784 7.812-18.856v-80h53.333v80c0 7.072 2.807 13.855 7.812 18.856 5.001 5.001 11.78 7.811 18.854 7.811s13.854-2.81 18.854-7.811c5.005-5.001 7.812-11.784 7.812-18.856v-80c35.362 0 69.278-14.048 94.281-39.052 25.007-25.005 39.053-58.919 39.053-94.281h80c7.074 0 13.854-2.81 18.854-7.811 5.005-5.001 7.812-11.784 7.812-18.856s-2.807-13.855-7.812-18.856c-5.001-5.001-11.78-7.811-18.854-7.811h-80v-53.333h80c7.074 0 13.854-2.807 18.854-7.812 5.005-5.001 7.812-11.78 7.812-18.854s-2.807-13.854-7.812-18.854c-5.001-5.005-11.78-7.812-18.854-7.812h-80v-53.333h80c7.074 0 13.854-2.807 18.854-7.812 5.005-5.001 7.812-11.78 7.812-18.854s-2.807-13.854-7.812-18.854c-5.001-5.005-11.78-7.812-18.854-7.812h-80v-53.333h80c7.074 0 13.854-2.807 18.854-7.812 5.005-5.001 7.812-11.78 7.812-18.854s-2.807-13.854-7.812-18.854c-5.001-5.005-11.78-7.812-18.854-7.812h-80c0-35.362-14.046-69.278-39.053-94.281-25.003-25.007-58.918-39.053-94.281-39.053v-80c0-7.074-2.807-13.854-7.812-18.854-5.001-5.005-11.78-7.812-18.854-7.812s-13.854 2.807-18.854 7.812c-5.005 5.001-7.812 11.78-7.812 18.854v80h-53.333v-80c0-7.074-2.807-13.854-7.812-18.854-5.001-5.005-11.78-7.812-18.854-7.812s-13.854 2.807-18.854 7.812c-5.005 5.001-7.812 11.78-7.812 18.854v80h-53.333v-80c0-7.074-2.807-13.854-7.812-18.854-5.001-5.005-11.78-7.812-18.854-7.812s-13.854 2.807-18.854 7.812c-5.005 5.001-7.812 11.78-7.812 18.854v80h-53.333v-80c0-7.074-2.81-13.854-7.811-18.854-5.001-5.005-11.784-7.812-18.856-7.812s-13.855 2.807-18.856 7.812c-5.001 5.001-7.811 11.78-7.811 18.854v80c-35.362 0-69.276 14.046-94.281 39.053-25.005 25.003-39.052 58.918-39.052 94.281h-80c-7.072 0-13.855 2.807-18.856 7.812-5.001 5.001-7.811 11.78-7.811 18.854s2.81 13.854 7.811 18.854c5.001 5.005 11.784 7.812 18.856 7.812h80v53.333h-80c-7.072 0-13.855 2.807-18.856 7.812-5.001 5.001-7.811 11.78-7.811 18.854s2.81 13.854 7.811 18.854c5.001 5.005 11.784 7.812 18.856 7.812h80v53.333h-80c-7.072 0-13.855 2.807-18.856 7.812-5.001 5.001-7.811 11.78-7.811 18.854s2.81 13.854 7.811 18.854c5.001 5.005 11.784 7.812 18.856 7.812h80v53.333h-80c-7.072 0-13.855 2.81-18.856 7.811s-7.811 11.784-7.811 18.856c0 7.072 2.81 13.855 7.811 18.856s11.784 7.811 18.856 7.811h80c0 35.362 14.048 69.276 39.052 94.281s58.919 39.052 94.281 39.052v80c0 7.072 2.81 13.855 7.811 18.856s11.784 7.811 18.856 7.811v0zM325.333 693.334c-21.217 0-41.565-8.428-56.569-23.431s-23.431-35.351-23.431-56.569v-373.333c0-21.218 8.428-41.566 23.431-56.567 15.003-15.006 35.351-23.433 56.569-23.433h373.333c21.218 0 41.566 8.427 56.567 23.433 15.006 15.002 23.433 35.349 23.433 56.567v373.333c0 21.217-8.427 41.565-23.433 56.569-15.002 15.003-35.349 23.431-56.567 23.431h-373.333zM352 506.667c0 21.217 8.428 41.565 23.431 56.569s35.351 23.431 56.569 23.431h160c21.218 0 41.566-8.428 56.567-23.431 15.006-15.003 23.433-35.351 23.433-56.569v-160c0-21.218-8.427-41.566-23.433-56.567-15.002-15.006-35.349-23.433-56.567-23.433h-160c-21.217 0-41.565 8.427-56.569 23.433-15.003 15.002-23.431 35.349-23.431 56.567v160zM432 533.334c-7.072 0-13.855-2.81-18.856-7.811s-7.811-11.784-7.811-18.856v-160c0-7.074 2.81-13.854 7.811-18.854 5.001-5.005 11.784-7.812 18.856-7.812h160c7.074 0 13.854 2.807 18.854 7.812 5.005 5.001 7.812 11.78 7.812 18.854v160c0 7.072-2.807 13.855-7.812 18.856-5.001 5.001-11.78 7.811-18.854 7.811h-160z" />
<glyph unicode="&#xe90d;" glyph-name="screen" d="M807.386 768h-590.77c-23.472-0.099-45.955-9.684-62.553-26.665s-25.965-39.985-26.062-64.001v-423.113c0-24.047 9.336-47.108 25.955-64.111s39.158-26.556 62.66-26.556h590.77c23.501 0 46.042 9.553 62.66 26.556s25.954 40.064 25.954 64.111v423.113c-0.098 24.016-9.463 47.020-26.061 64.001s-39.083 26.566-62.554 26.665zM836.924 254.221c0-8.013-3.115-15.701-8.653-21.367-5.538-5.67-13.052-8.853-20.885-8.853h-590.77c-7.834 0-15.347 3.183-20.887 8.853-5.54 5.666-8.652 13.355-8.652 21.367v423.113c0 8.015 3.112 15.703 8.652 21.37s13.053 8.852 20.887 8.852h590.77c7.834 0 15.347-3.184 20.885-8.852s8.653-13.355 8.653-21.37v-423.113zM659.691 72.888c0-8.013-3.11-15.701-8.649-21.367-5.542-5.67-13.056-8.853-20.89-8.853h-236.306c-7.834 0-15.347 3.183-20.887 8.853-5.539 5.666-8.652 13.355-8.652 21.367 0 8.017 3.112 15.706 8.652 21.372s13.053 8.853 20.887 8.853h236.306c7.834 0 15.347-3.187 20.89-8.853 5.538-5.666 8.649-13.355 8.649-21.372z" />
<glyph unicode="&#xe90e;" glyph-name="mobile" d="M273.069 768.001c0 9.053 3.596 17.735 9.997 24.136s15.084 9.997 24.136 9.997h409.598c9.054 0 17.737-3.596 24.137-9.997 6.404-6.401 9.997-15.083 9.997-24.136v-682.668c0-9.050-3.593-17.732-9.997-24.137-6.4-6.4-15.083-9.997-24.137-9.997h-409.598c-9.053 0-17.735 3.597-24.136 9.997-6.401 6.404-9.997 15.087-9.997 24.137v682.668zM307.202 870.401c-27.158 0-53.204-10.788-72.408-29.992s-29.992-45.25-29.992-72.408v-682.668c0-27.157 10.789-53.201 29.992-72.405s45.25-29.995 72.408-29.995h409.598c27.162 0 53.205 10.79 72.41 29.995s29.99 45.248 29.99 72.405v682.668c0 27.158-10.786 53.204-29.99 72.408s-45.248 29.992-72.41 29.992h-409.598zM409.602 143.36c-6.337 0-12.414-2.517-16.895-6.997s-6.998-10.56-6.998-16.896c0-6.336 2.517-12.412 6.998-16.896 4.481-4.48 10.558-6.997 16.895-6.997h204.798c6.34 0 12.416 2.517 16.896 6.997 4.48 4.484 6.997 10.56 6.997 16.896s-2.517 12.416-6.997 16.896c-4.48 4.48-10.556 6.997-16.896 6.997h-204.798z" />
<glyph unicode="&#xe90f;" glyph-name="port" d="M307.201 452.267c6.79 0 13.301 2.697 18.102 7.497s7.498 11.315 7.498 18.103c0 6.788-2.697 13.299-7.498 18.103-4.801 4.8-11.313 7.497-18.102 7.497s-13.301-2.697-18.102-7.497c-4.801-4.804-7.498-11.315-7.498-18.103s2.697-13.303 7.498-18.103c4.801-4.8 11.312-7.497 18.102-7.497zM435.2 477.867c0-6.788-2.697-13.303-7.497-18.103s-11.313-7.497-18.102-7.497c-6.79 0-13.301 2.697-18.102 7.497s-7.498 11.315-7.498 18.103c0 6.788 2.697 13.299 7.498 18.103 4.801 4.8 11.312 7.497 18.102 7.497s13.301-2.697 18.102-7.497c4.8-4.804 7.497-11.315 7.497-18.103zM358.401 349.867c6.79 0 13.301 2.697 18.102 7.497s7.498 11.315 7.498 18.103c0 6.788-2.697 13.299-7.498 18.103-4.801 4.8-11.313 7.497-18.102 7.497s-13.301-2.697-18.102-7.497c-4.801-4.804-7.498-11.315-7.498-18.103s2.697-13.303 7.498-18.103c4.801-4.8 11.312-7.497 18.102-7.497zM486.4 375.467c0-6.788-2.697-13.303-7.497-18.103s-11.311-7.497-18.103-7.497c-6.788 0-13.299 2.697-18.099 7.497-4.804 4.8-7.501 11.315-7.501 18.103s2.697 13.299 7.501 18.103c4.8 4.8 11.311 7.497 18.099 7.497 6.793 0 13.303-2.697 18.103-7.497 4.8-4.804 7.497-11.315 7.497-18.103zM563.2 349.867c6.793 0 13.303 2.697 18.103 7.497s7.497 11.315 7.497 18.103c0 6.788-2.697 13.299-7.497 18.103-4.8 4.8-11.311 7.497-18.103 7.497-6.788 0-13.299-2.697-18.099-7.497-4.804-4.804-7.501-11.315-7.501-18.103s2.697-13.303 7.501-18.103c4.8-4.8 11.311-7.497 18.099-7.497zM691.2 375.467c0-6.788-2.697-13.303-7.497-18.103s-11.311-7.497-18.103-7.497c-6.788 0-13.299 2.697-18.099 7.497-4.804 4.8-7.501 11.315-7.501 18.103s2.697 13.299 7.501 18.103c4.8 4.8 11.311 7.497 18.099 7.497 6.793 0 13.303-2.697 18.103-7.497 4.8-4.804 7.497-11.315 7.497-18.103zM512 452.267c6.793 0 13.303 2.697 18.103 7.497s7.497 11.315 7.497 18.103c0 6.788-2.697 13.299-7.497 18.103-4.8 4.8-11.311 7.497-18.103 7.497-6.788 0-13.299-2.697-18.099-7.497-4.804-4.804-7.501-11.315-7.501-18.103s2.697-13.303 7.501-18.103c4.8-4.8 11.311-7.497 18.099-7.497zM640 477.867c0-6.788-2.697-13.303-7.497-18.103s-11.311-7.497-18.103-7.497c-6.788 0-13.299 2.697-18.099 7.497-4.804 4.8-7.501 11.315-7.501 18.103s2.697 13.299 7.501 18.103c4.8 4.8 11.311 7.497 18.099 7.497 6.793 0 13.303-2.697 18.103-7.497 4.8-4.804 7.497-11.315 7.497-18.103zM716.8 452.267c6.793 0 13.303 2.697 18.103 7.497s7.497 11.315 7.497 18.103c0 6.788-2.697 13.299-7.497 18.103-4.8 4.8-11.311 7.497-18.103 7.497-6.788 0-13.299-2.697-18.099-7.497-4.804-4.804-7.501-11.315-7.501-18.103s2.697-13.303 7.501-18.103c4.8-4.8 11.311-7.497 18.099-7.497zM244.225 631.467c-19.282 0.009-38.316-4.339-55.683-12.718s-32.615-20.573-44.607-35.672c-11.992-15.099-20.419-32.712-24.649-51.524s-4.157-38.338 0.216-57.116l35.789-153.6c6.555-28.151 22.444-53.252 45.081-71.223 22.637-17.967 50.689-27.75 79.591-27.746h463.973c28.89 0.009 56.922 9.783 79.548 27.742 22.626 17.963 38.511 43.046 45.073 71.177l35.84 153.6c4.382 18.773 4.463 38.295 0.243 57.106s-12.638 36.425-24.619 51.529c-11.981 15.103-27.221 27.304-44.578 35.693s-36.386 12.748-55.667 12.753h-535.551zM169.32 486.059c-2.624 11.273-2.665 22.993-0.122 34.284s7.606 21.862 14.809 30.921c7.203 9.059 16.361 16.374 26.789 21.396s21.856 7.623 33.43 7.607h535.551c49.51 0 86.016-46.080 74.803-94.208l-35.84-153.6c-3.93-16.892-13.461-31.957-27.046-42.739-13.581-10.786-30.413-16.653-47.757-16.653h-463.973c-17.343 0-34.175 5.867-47.757 16.653-13.583 10.782-23.115 25.847-27.046 42.739l-35.789 153.6h-0.051z" />
<glyph unicode="&#xe910;" glyph-name="ram" d="M821.248 733.867c13.312 0 25.958-2.662 37.939-7.987 12.032-5.325 22.682-12.698 32-22.016 9.37-9.318 16.691-19.968 22.016-32 5.325-11.981 8.141-24.781 8.397-38.4v-257.997c0-18.125-4.506-35.226-13.619-51.2-8.823-15.748-21.828-28.753-37.581-37.581v-90.419c-0.043-15.134-4.544-29.918-12.941-42.513-8.393-12.591-20.314-22.434-34.266-28.297-9.574-4.25-19.456-6.246-29.594-5.99h-204.8c-3.362-0.038-6.694 0.619-9.796 1.92s-5.901 3.23-8.226 5.658l-58.778 58.829-58.778-58.829c-2.325-2.428-5.124-4.356-8.226-5.658-3.098-1.301-6.434-1.958-9.796-1.92h-204.799c-15.134 0.047-29.92 4.548-42.513 12.941-12.593 8.397-22.434 20.314-28.297 34.266-4.199 9.289-6.247 19.405-5.99 29.594v90.419c-15.592 8.913-28.46 21.905-37.222 37.581-8.947 15.595-13.759 33.22-13.978 51.2v258.048c0 13.312 2.662 25.958 7.987 37.939 5.295 11.938 12.76 22.788 22.016 32 9.212 9.257 20.063 16.722 32 22.016 12.089 5.349 25.132 8.205 38.349 8.397h618.495zM870.4 631.467c0.043 6.743-1.318 13.421-3.994 19.61-2.615 6.050-6.272 11.595-10.803 16.384-4.604 4.857-10.189 8.679-16.384 11.213-6.34 2.653-13.146 4.012-20.019 3.994h-614.399c-6.69 0.077-13.327-1.198-19.512-3.75s-11.791-6.327-16.481-11.098c-4.687-4.747-8.484-10.296-11.213-16.384-2.897-6.245-4.266-13.089-3.994-19.968v-256c0-7.168 1.331-13.824 3.994-19.968s6.298-11.622 10.803-16.384c4.462-4.77 9.938-8.482 16.026-10.854 6.144-2.406 12.902-3.738 20.378-3.994h614.399c6.69-0.081 13.329 1.195 19.516 3.746s11.789 6.327 16.478 11.102c4.557 4.506 8.294 9.933 11.213 16.384 2.897 6.246 4.267 13.090 3.994 19.968v256zM768 631.467c6.746 0.043 13.423-1.318 19.61-3.994 6.144-2.662 11.571-6.298 16.384-10.803 4.86-4.605 8.678-10.19 11.213-16.384 2.662-6.4 3.994-13.107 3.994-20.019v-153.6c0.081-6.69-1.195-13.329-3.746-19.516-2.551-6.182-6.327-11.789-11.102-16.478-4.745-4.689-10.295-8.486-16.384-11.213-6.242-2.897-13.090-4.267-19.968-3.994h-511.999c-6.86-0.064-13.66 1.297-19.968 3.994-6.050 2.62-11.595 6.272-16.384 10.803-4.774 4.463-8.483 9.937-10.854 16.026-2.473 6.519-3.823 13.41-3.994 20.378v153.6c-0.077 6.691 1.199 13.327 3.75 19.513s6.326 11.791 11.098 16.481c4.748 4.687 10.297 8.485 16.384 11.213 6.245 2.897 13.090 4.266 19.968 3.994h511.999zM384.001 580.267h-128v-153.6h128v153.6zM588.8 426.667v153.6h-153.6v-153.6h153.6zM640 426.667h128v153.6h-128v-153.6zM819.2 273.067h-614.399v-76.8c0-6.912 2.56-12.954 7.578-18.022 2.326-2.428 5.126-4.356 8.225-5.658s6.435-1.958 9.797-1.92h194.406l69.17 69.222c2.325 2.428 5.124 4.356 8.226 5.658 3.102 1.306 6.434 1.958 9.796 1.92 3.362 0.038 6.699-0.614 9.796-1.92 3.102-1.301 5.901-3.23 8.226-5.658l69.53-69.222h194.048c3.362-0.038 6.699 0.619 9.796 1.92 3.102 1.301 5.901 3.23 8.226 5.658 2.432 2.325 4.356 5.124 5.658 8.226 1.306 3.098 1.958 6.434 1.92 9.796v76.8z" />
<glyph unicode="&#xe911;" glyph-name="simcard" d="M170.667 773.334c0 21.217 8.428 41.565 23.431 56.569s35.351 23.431 56.569 23.431h377.92c21.21-0.019 41.545-8.46 56.533-23.467l102.135-102.080c14.985-14.997 23.407-35.331 23.411-56.533v-591.253c0-21.218-8.427-41.566-23.433-56.567-15.002-15.006-35.349-23.433-56.567-23.433h-480c-21.217 0-41.565 8.427-56.569 23.433-15.003 15.002-23.431 35.349-23.431 56.567v693.333zM250.667 800c-7.072 0-13.855-2.81-18.856-7.811s-7.811-11.784-7.811-18.856v-693.333c0-7.074 2.81-13.854 7.811-18.854 5.001-5.005 11.784-7.812 18.856-7.812h480c7.074 0 13.854 2.807 18.854 7.812 5.005 5.001 7.812 11.78 7.812 18.854v591.253c0 7.059-2.803 13.829-7.787 18.827l-102.135 102.133c-4.996 4.985-11.767 7.785-18.825 7.787h-377.92zM357.333 640c-7.072 0-13.855-2.81-18.856-7.811s-7.811-11.784-7.811-18.856v-80h133.333v106.667h-106.667zM517.333 640v-106.667h133.333v80c0 7.072-2.807 13.855-7.812 18.856-5.001 5.001-11.78 7.811-18.854 7.811h-106.667zM650.667 480h-320v-106.667h320v106.667zM650.667 320h-133.333v-106.667h106.667c7.074 0 13.854 2.807 18.854 7.812 5.005 5.001 7.812 11.78 7.812 18.854v80zM464 213.334v106.667h-133.333v-80c0-7.074 2.81-13.854 7.811-18.854 5.001-5.005 11.784-7.812 18.856-7.812h106.667zM277.333 613.334c0 21.217 8.428 41.565 23.431 56.569s35.351 23.431 56.569 23.431h266.667c21.218 0 41.566-8.428 56.567-23.431 15.006-15.003 23.433-35.351 23.433-56.569v-373.333c0-21.218-8.427-41.566-23.433-56.567-15.002-15.006-35.349-23.433-56.567-23.433h-266.667c-21.217 0-41.565 8.427-56.569 23.433-15.003 15.002-23.431 35.349-23.431 56.567v373.333z" />
<glyph unicode="&#xe912;" glyph-name="Storage" d="M768 768v-682.667h-512v476.587l206.080 206.080h305.92zM768 853.334h-341.333l-256-256v-512c0-46.933 38.4-85.333 85.333-85.333h512c46.933 0 85.333 38.4 85.333 85.333v682.667c0 46.933-38.4 85.333-85.333 85.333zM384 640h85.333v-170.667h-85.333v170.667zM512 640h85.333v-170.667h-85.333v170.667zM640 640h85.333v-170.667h-85.333v170.667z" />
<glyph unicode="&#xe913;" glyph-name="Wifi" d="M226.682 314.334c-11.808 11.998-17.385 26.334-16.729 42.999s7.216 29.666 19.681 39.002c36.081 27.998 76.27 49.826 120.564 65.476 44.294 15.654 91.031 23.497 140.204 23.522 49.86 0 96.934-8 141.231-24 44.292-16 84.471-38.332 120.525-66.999 12.463-9.335 18.867-22.174 19.209-38.519 0.341-16.35-5.406-30.507-17.242-42.483-11.153-11.332-24.772-17.173-40.858-17.519s-31.002 4.16-44.753 13.521c-25.583 18.001-53.295 31.838-83.132 41.519s-61.495 14.507-94.98 14.481c-33.455 0-65.116-5.001-94.978-15.002-29.862-9.997-57.245-23.667-82.147-40.998-14.433-10.001-29.692-14.507-45.777-13.521s-29.692 7.159-40.818 18.522zM59.395 483.333c-11.153 11.332-16.729 25.173-16.729 41.521 0 16.346 5.904 29.84 17.713 40.48 58.386 50 123.989 89.173 196.808 117.52s150.557 42.507 233.215 42.48c82.662 0 160.401-14.173 233.22-42.52 72.815-28.347 138.419-67.507 196.804-117.48 11.81-10.667 17.886-24 18.227-40s-5.406-29.999-17.242-42.001c-11.153-11.332-24.759-17.331-40.819-18.001-16.060-0.666-30.66 4.335-43.81 15.002-47.889 39.334-101.197 70.001-159.923 92s-120.879 33-186.458 33c-65.601 0-127.753-11-186.454-33s-112.010-52.666-159.926-92c-13.12-10.667-27.724-15.667-43.809-15.002-16.086 0.67-29.692 6.669-40.818 18.001zM490.402 85.334c-22.302 0-40.998 7.667-56.090 23.002-15.088 15.33-22.632 34.33-22.632 56.998 0 22.665 7.544 41.668 22.632 56.998 15.091 15.334 33.788 23.002 56.090 23.002 22.306 0 41.003-7.667 56.090-23.002 15.091-15.33 22.635-34.334 22.635-56.998 0-22.669-7.543-41.668-22.635-56.998-15.087-15.334-33.783-23.002-56.090-23.002z" />
<glyph unicode="&#xe914;" glyph-name="tick-circle" d="M512 165.334c-69.312 0-135.781 27.533-184.791 76.544-49.009 49.007-76.543 115.477-76.543 184.789s27.533 135.781 76.543 184.791c49.009 49.009 115.479 76.543 184.791 76.543s135.782-27.533 184.789-76.543c49.011-49.009 76.544-115.479 76.544-184.791s-27.533-135.782-76.544-184.789c-49.007-49.011-115.477-76.544-184.789-76.544zM512 128c79.211 0 155.179 31.467 211.187 87.479 56.013 56.009 87.479 131.977 87.479 211.187s-31.467 155.178-87.479 211.189c-56.009 56.011-131.977 87.477-211.187 87.477s-155.178-31.467-211.189-87.477c-56.011-56.011-87.477-131.979-87.477-211.189s31.467-155.179 87.477-211.187c56.011-56.013 131.979-87.479 211.189-87.479zM622.882 539.787c-0.265-0.258-0.516-0.532-0.747-0.821l-129.66-165.201-78.138 78.178c-5.308 4.945-12.328 7.637-19.582 7.509s-14.175-3.068-19.305-8.196c-5.13-5.129-8.069-12.053-8.197-19.307s2.565-14.272 7.511-19.58l98.784-98.825c2.662-2.654 5.828-4.749 9.318-6.153 3.486-1.404 7.223-2.095 10.982-2.022 3.759 0.068 7.467 0.896 10.897 2.428 3.435 1.532 6.524 3.742 9.084 6.494l149.035 186.295c5.077 5.325 7.851 12.436 7.727 19.791-0.128 7.356-3.145 14.367-8.397 19.517s-12.322 8.026-19.678 8.006c-7.356-0.020-14.409-2.935-19.635-8.114z" />
<glyph unicode="&#xe915;" glyph-name="arr-chev-left" d="M606.63 593.477c1.225-1.219 2.193-2.668 2.854-4.262s1.003-3.305 1.003-5.031c0-1.726-0.341-3.436-1.003-5.031s-1.63-3.043-2.854-4.263l-148.254-148.227 148.254-148.224c2.466-2.466 3.849-5.811 3.849-9.297s-1.382-6.827-3.849-9.293c-2.466-2.462-5.807-3.849-9.293-3.849s-6.831 1.387-9.293 3.849l-157.521 157.521c-1.225 1.22-2.193 2.667-2.854 4.262s-1.003 3.307-1.003 5.030c0 1.728 0.341 3.439 1.003 5.030 0.661 1.596 1.63 3.046 2.854 4.262l157.521 157.521c1.216 1.223 2.667 2.193 4.262 2.854 1.591 0.662 3.302 1.002 5.030 1.002 1.724 0 3.435-0.34 5.030-1.002s3.042-1.632 4.262-2.854v0z" />
<glyph unicode="&#xe916;" glyph-name="arr-chev-down" d="M345.19 521.297c1.219 1.222 2.668 2.192 4.262 2.854s3.305 1.003 5.031 1.003c1.726 0 3.436-0.341 5.031-1.003s3.043-1.632 4.263-2.854l148.227-148.254 148.224 148.254c2.466 2.465 5.811 3.85 9.297 3.85s6.827-1.385 9.293-3.85c2.462-2.465 3.849-5.808 3.849-9.294s-1.387-6.83-3.849-9.292l-157.521-157.521c-1.22-1.225-2.667-2.193-4.262-2.854s-3.307-1.003-5.030-1.003c-1.728 0-3.439 0.341-5.030 1.003-1.596 0.661-3.046 1.63-4.262 2.854l-157.521 157.521c-1.223 1.216-2.193 2.667-2.854 4.262-0.662 1.591-1.002 3.302-1.002 5.030s0.34 3.436 1.002 5.031c0.662 1.595 1.632 3.043 2.854 4.263v0z" />
<glyph unicode="&#xe917;" glyph-name="adv" d="M633.771 463.104c1.988-1.984 3.563-4.335 4.638-6.929 1.075-2.59 1.63-5.367 1.63-8.175s-0.555-5.585-1.63-8.175c-1.075-2.594-2.65-4.949-4.638-6.929l-128-128c-1.98-1.988-4.335-3.563-6.925-4.638-2.594-1.075-5.372-1.63-8.179-1.63-2.803 0-5.585 0.555-8.175 1.63-2.594 1.075-4.945 2.65-6.929 4.638l-63.999 64c-1.984 1.984-3.557 4.339-4.63 6.929s-1.626 5.367-1.626 8.175c0 2.803 0.553 5.581 1.626 8.175 1.073 2.59 2.647 4.945 4.63 6.929 4.006 4.006 9.439 6.255 15.103 6.255 2.807 0 5.585-0.55 8.175-1.626 2.59-1.071 4.945-2.645 6.929-4.629l48.896-48.939 112.896 112.939c1.984 1.988 4.335 3.563 6.929 4.638 2.59 1.075 5.372 1.63 8.175 1.63 2.807 0 5.585-0.555 8.179-1.63 2.59-1.075 4.945-2.65 6.925-4.638zM341.333 704h-42.667c-22.632 0-44.337-8.99-60.34-24.994s-24.994-37.708-24.994-60.34v-448c0-22.63 8.99-44.335 24.994-60.339s37.708-24.994 60.34-24.994h426.667c22.63 0 44.335 8.99 60.339 24.994s24.994 37.709 24.994 60.339v448c0 22.632-8.99 44.337-24.994 60.34s-37.709 24.994-60.339 24.994h-42.667v-42.667h42.667c11.315 0 22.17-4.495 30.17-12.497s12.497-18.854 12.497-30.17v-448c0-11.315-4.497-22.17-12.497-30.17s-18.854-12.497-30.17-12.497h-426.667c-11.316 0-22.168 4.497-30.17 12.497s-12.497 18.854-12.497 30.17v448c0 11.316 4.495 22.168 12.497 30.17s18.854 12.497 30.17 12.497h42.667v42.667zM576 725.334c5.658 0 11.085-2.248 15.087-6.249 3.998-4 6.246-9.427 6.246-15.085v-42.667c0-5.658-2.249-11.084-6.246-15.085-4.002-4.001-9.429-6.249-15.087-6.249h-128c-5.658 0-11.085 2.248-15.087 6.249-3.998 4-6.246 9.427-6.246 15.085v42.667c0 5.658 2.249 11.084 6.246 15.085 4.002 4.001 9.429 6.249 15.087 6.249h128zM448 768c-16.973 0-33.253-6.743-45.255-18.745s-18.745-28.281-18.745-45.255v-42.667c0-16.974 6.743-33.253 18.745-45.255s28.282-18.745 45.255-18.745h128c16.973 0 33.254 6.743 45.257 18.745s18.743 28.281 18.743 45.255v42.667c0 16.974-6.741 33.253-18.743 45.255s-28.284 18.745-45.257 18.745h-128z" />
<glyph unicode="&#xe918;" glyph-name="dis-adv" d="M432.896 463.104c1.984 1.988 4.339 3.563 6.929 4.638 2.594 1.075 5.372 1.63 8.175 1.63 2.807 0 5.585-0.555 8.179-1.63 2.59-1.075 4.945-2.65 6.925-4.638l48.896-48.939 48.896 48.939c4.006 4.006 9.442 6.255 15.104 6.255 5.666 0 11.102-2.249 15.104-6.255 4.006-4.006 6.259-9.438 6.259-15.104s-2.253-11.098-6.259-15.104l-48.939-48.896 48.939-48.896c4.006-4.006 6.259-9.438 6.259-15.104s-2.253-11.098-6.259-15.104c-4.002-4.006-9.438-6.255-15.104-6.255-5.662 0-11.098 2.249-15.104 6.255l-48.896 48.939-48.896-48.939c-4.002-4.006-9.438-6.255-15.104-6.255-5.662 0-11.098 2.249-15.104 6.255-4.002 4.006-6.255 9.438-6.255 15.104s2.252 11.098 6.255 15.104l48.939 48.896-48.939 48.896c-1.984 1.98-3.563 4.335-4.638 6.929-1.075 2.59-1.628 5.367-1.628 8.175s0.553 5.585 1.628 8.175c1.075 2.594 2.654 4.945 4.638 6.929zM341.333 704h-42.667c-22.632 0-44.337-8.99-60.34-24.994s-24.994-37.708-24.994-60.34v-448c0-22.63 8.99-44.335 24.994-60.339s37.708-24.994 60.34-24.994h426.667c22.63 0 44.335 8.99 60.339 24.994s24.994 37.709 24.994 60.339v448c0 22.632-8.99 44.337-24.994 60.34s-37.709 24.994-60.339 24.994h-42.667v-42.667h42.667c11.315 0 22.17-4.495 30.17-12.497s12.497-18.854 12.497-30.17v-448c0-11.315-4.497-22.17-12.497-30.17s-18.854-12.497-30.17-12.497h-426.667c-11.316 0-22.168 4.497-30.17 12.497s-12.497 18.854-12.497 30.17v448c0 11.316 4.495 22.168 12.497 30.17s18.854 12.497 30.17 12.497h42.667v42.667zM576 725.334c5.658 0 11.085-2.248 15.087-6.249 3.998-4 6.246-9.427 6.246-15.085v-42.667c0-5.658-2.249-11.084-6.246-15.085-4.002-4.001-9.429-6.249-15.087-6.249h-128c-5.658 0-11.085 2.248-15.087 6.249-3.998 4-6.246 9.427-6.246 15.085v42.667c0 5.658 2.249 11.084 6.246 15.085 4.002 4.001 9.429 6.249 15.087 6.249h128zM448 768c-16.973 0-33.253-6.743-45.255-18.745s-18.745-28.281-18.745-45.255v-42.667c0-16.974 6.743-33.253 18.745-45.255s28.282-18.745 45.255-18.745h128c16.973 0 33.254 6.743 45.257 18.745s18.743 28.281 18.743 45.255v42.667c0 16.974-6.741 33.253-18.743 45.255s-28.284 18.745-45.257 18.745h-128z" />
<glyph unicode="&#xe919;" glyph-name="half-star" d="M413.216 534.224l81.534 161.542c1.566 3.25 4.015 5.995 7.066 7.922 3.046 1.927 6.575 2.959 10.185 2.979 6.831 0 13.662-3.622 17.361-10.901l81.536-161.542 182.857-25.983c4.557-0.717 8.73-2.982 11.81-6.417s4.885-7.829 5.103-12.437c0.26-3.068-0.175-6.157-1.276-9.033-1.097-2.876-2.833-5.47-5.073-7.582l-131.524-125.291 30.989-176.585c2.91-16.538-13.44-29.495-27.853-22.101l-163.93 84.224-163.857-84.224c-1.714-0.892-3.551-1.519-5.451-1.869-12.768-2.24-24.939 9.485-22.4 23.97l30.987 176.585-131.488 125.291c-2.044 1.937-3.669 4.267-4.774 6.857s-1.665 5.376-1.648 8.188c0.002 3.981 1.1 7.881 3.174 11.277 1.471 2.462 3.476 4.561 5.866 6.144s5.107 2.611 7.947 3.004l182.859 25.983zM512 276.327c3.012 0.013 5.986-0.704 8.661-2.091l137.609-70.711-25.907 147.729c-0.61 3.396-0.38 6.895 0.674 10.18s2.901 6.263 5.372 8.674l108.531 103.411-151.275 21.504c-3.136 0.474-6.106 1.698-8.661 3.571s-4.617 4.339-6.012 7.181l-68.954 136.566-0.038-0.112v-365.903z" />
<glyph unicode="&#xe91a;" glyph-name="fill-star" d="M348.183 148.796c-14.411-7.394-30.763 5.559-27.851 22.101l30.987 176.585-131.525 125.291c-12.283 11.725-5.899 33.152 10.565 35.469l182.859 25.982 81.536 161.542c7.356 14.56 27.251 14.56 34.607 0l81.536-161.542 182.861-25.982c16.461-2.317 22.848-23.744 10.526-35.469l-131.486-125.291 30.985-176.585c2.914-16.542-13.44-29.495-27.849-22.101l-163.934 84.224-163.817-84.224z" />
<glyph unicode="&#xe91b;" glyph-name="star" d="M320.332 170.936c-2.912-16.576 13.44-29.534 27.851-22.14l163.894 84.224 163.857-84.224c14.409-7.394 30.763 5.564 27.849 22.101l-30.985 176.585 131.486 125.291c12.322 11.725 5.973 33.152-10.526 35.469l-182.861 25.983-81.536 161.542c-1.553 3.274-4.002 6.041-7.066 7.978s-6.613 2.966-10.236 2.966c-3.627 0-7.177-1.029-10.24-2.966s-5.513-4.704-7.066-7.978l-81.536-161.579-182.859-25.984c-16.464-2.313-22.848-23.744-10.565-35.465l131.525-125.291-30.987-176.589v0.077zM503.454 274.236l-137.612-70.711 25.909 147.729c0.607 3.401 0.369 6.899-0.692 10.185-1.061 3.29-2.913 6.263-5.394 8.67l-108.491 103.411 151.275 21.504c3.132 0.474 6.101 1.698 8.657 3.571s4.621 4.339 6.016 7.181l68.877 136.567 68.958-136.567c1.395-2.842 3.456-5.308 6.012-7.181s5.525-3.098 8.657-3.571l151.275-21.466-108.489-103.411c-2.487-2.411-4.343-5.393-5.402-8.687-1.062-3.294-1.297-6.801-0.683-10.206l25.907-147.729-137.609 70.711c-2.662 1.37-5.615 2.086-8.606 2.086-2.995 0-5.909-0.717-8.567-2.086z" />
<glyph unicode="&#xe91c;" glyph-name="like" d="M554.078 765.999c-41.515 10.379-80.077-21.018-82.859-61.666-3.123-45.641-9.984-87.548-18.586-112.474-5.427-15.633-20.8-43.991-45.162-71.176-24.189-27.055-55.673-51.158-92.542-61.231-29.182-7.949-58.929-33.22-58.929-70.135v-173.747c0-36.693 29.617-63.578 62.881-67.093 46.467-4.949 67.919-18.022 89.806-31.398l2.084-1.301c11.812-7.168 25.103-15.113 42.122-21.018 17.242-5.909 37.393-9.425 63.663-9.425h151.996c40.687 0 69.436 20.715 83.985 46.204 7.031 12.032 10.829 25.677 11.029 39.607 0 6.601-0.998 13.547-3.345 20.147 8.73 11.422 16.503 25.101 21.193 39.13 4.779 14.332 7.471 33.092 0.175 49.899 2.995 5.645 5.21 11.678 6.903 17.498 3.345 11.725 4.911 24.666 4.911 37.218 0 12.506-1.566 25.404-4.911 37.171-1.519 5.41-3.524 10.671-5.99 15.723 7.603 10.816 12.497 23.305 14.263 36.412 1.771 13.103 0.363 26.441-4.105 38.886-8.943 25.711-29.615 47.77-52.109 55.241-36.783 12.246-78.298 11.985-109.261 9.163-6.43-0.579-12.843-1.303-19.238-2.171 15.066 64.515 14.14 131.733-2.692 195.809-2.927 10.267-8.546 19.564-16.273 26.932s-17.28 12.537-27.674 14.975l-11.337 2.823zM668.553 128.717h-151.996c-22.144 0-37.474 2.995-49.506 7.121-12.203 4.211-21.973 9.903-33.698 17.067l-1.737 1.041c-24.101 14.724-52.024 31.744-108.131 37.696-14.461 1.562-24.058 12.595-24.058 23.885v173.79c0 11.034 9.814 23.582 26.924 28.228 47.552 13.030 85.854 43.255 113.517 74.172 27.575 30.834 46.204 64.055 53.76 85.899 10.556 30.399 17.677 76.778 20.932 123.765 1.088 15.721 15.633 25.795 28.966 22.495l11.379-2.866c6.946-1.737 11.204-6.21 12.506-11.074 17.732-67.572 15.548-138.832-6.298-205.189-1.237-3.691-1.459-7.646-0.64-11.452 0.815-3.806 2.641-7.322 5.282-10.18s5.999-4.958 9.732-6.071c3.729-1.114 7.689-1.207 11.465-0.265l0.132 0.043 0.606 0.132 2.517 0.606c14.852 3.153 29.875 5.431 44.992 6.818 28.791 2.607 63.27 2.347 91.631-7.121 7.599-2.517 19.541-13.026 24.751-28.228 4.646-13.376 3.78-29.094-11.55-44.382l-15.33-15.33 15.33-15.373c1.865-1.865 4.557-6.123 6.686-13.679 2.086-7.249 3.255-16.068 3.255-25.229 0-9.207-1.169-17.98-3.255-25.276-2.172-7.556-4.821-11.81-6.686-13.679l-15.33-15.33 15.33-15.373c2.039-2.039 4.732-7.684 0.218-21.193-4.706-13.094-12.19-25.020-21.931-34.957l-15.33-15.33 15.33-15.373c0.26-0.218 1.779-2.172 1.779-7.381-0.192-6.37-2.001-12.587-5.257-18.065-7.164-12.51-21.841-24.32-46.289-24.32v-0.043z" />
<glyph unicode="&#xe91d;" glyph-name="dislike" d="M548.864 99.243c-40.789-10.24-78.635 20.651-81.408 60.587-3.072 44.8-9.813 85.973-18.261 110.507-5.333 15.36-20.437 43.179-44.373 69.888-23.765 26.624-54.699 50.304-90.923 60.16-28.672 7.851-57.899 32.683-57.899 68.949v170.667c0 36.053 29.099 62.464 61.781 65.963 45.653 4.821 66.731 17.707 88.235 30.848l2.048 1.237c11.605 7.083 24.661 14.891 41.387 20.651 16.939 5.888 36.736 9.301 62.549 9.301h149.333c39.979 0 68.224-20.395 82.517-45.397 6.997-12.245 10.837-25.899 10.837-38.955 0-6.485-0.981-13.312-3.285-19.797 8.576-11.179 16.213-24.619 20.821-38.4 4.693-14.080 7.339-32.512 0.171-49.067 2.944-5.547 5.12-11.435 6.784-17.195 3.285-11.52 4.821-24.192 4.821-36.523s-1.536-25.003-4.821-36.523c-1.493-5.12-3.413-10.411-5.888-15.488 16.811-24.363 17.835-51.2 9.984-73.941-8.789-25.259-29.099-46.933-51.2-54.272-36.139-12.075-76.928-11.776-107.349-9.003-6.315 0.567-12.617 1.28-18.901 2.133 14.81-63.398 13.901-129.459-2.645-192.427-5.888-21.675-23.467-36.181-43.179-41.131l-11.136-2.773zM661.333 725.334h-149.333c-21.76 0-36.821-2.901-48.64-6.955-11.989-4.139-21.589-9.771-33.109-16.768l-1.707-1.067c-23.68-14.421-51.115-31.147-106.24-37.035-14.208-1.493-23.637-12.373-23.637-23.467v-170.709c0-10.88 9.643-23.168 26.453-27.733 46.72-12.8 84.352-42.539 111.531-72.917 27.093-30.293 45.397-62.933 52.821-84.352 10.368-29.867 17.365-75.435 20.565-121.6 1.067-15.445 15.36-25.387 28.459-22.101l11.179 2.773c6.827 1.707 11.008 6.144 12.288 10.88 17.434 66.402 15.283 136.431-6.187 201.643-1.203 3.622-1.417 7.505-0.61 11.238 0.811 3.729 2.603 7.177 5.197 9.98s5.892 4.86 9.549 5.952c3.661 1.092 7.543 1.186 11.251 0.265h0.128l0.597-0.171 2.475-0.555c14.592-3.098 29.35-5.333 44.203-6.699 28.288-2.56 62.165-2.304 90.027 6.955 7.467 2.517 19.2 12.843 24.32 27.776 4.565 13.141 3.712 28.587-11.349 43.563l-15.061 15.104 15.061 15.104c1.835 1.792 4.48 5.973 6.571 13.44 2.048 7.125 3.2 15.787 3.2 24.789s-1.152 17.664-3.2 24.789c-2.133 7.424-4.736 11.648-6.571 13.44l-15.061 15.104 15.061 15.104c2.005 2.005 4.651 7.509 0.213 20.821-4.629 12.852-11.981 24.553-21.547 34.304l-15.061 15.104 15.061 15.104c0.256 0.213 1.749 2.133 1.749 7.253-0.196 6.244-1.971 12.336-5.163 17.707-7.083 12.331-21.461 23.936-45.483 23.936z" />
<glyph unicode="&#xe91e;" glyph-name="dot" d="M312 357.334c-14.852 0-29.096 5.901-39.598 16.401-10.502 10.505-16.402 24.747-16.402 39.599s5.9 29.094 16.402 39.599c10.502 10.5 24.746 16.401 39.598 16.401s29.096-5.901 39.598-16.401c10.502-10.505 16.402-24.747 16.402-39.599s-5.9-29.094-16.402-39.599c-10.502-10.5-24.746-16.401-39.598-16.401zM498.667 357.334c-14.852 0-29.094 5.901-39.599 16.401-10.5 10.505-16.401 24.747-16.401 39.599s5.901 29.094 16.401 39.599c10.505 10.5 24.747 16.401 39.599 16.401s29.094-5.901 39.599-16.401c10.5-10.505 16.401-24.747 16.401-39.599s-5.901-29.094-16.401-39.599c-10.505-10.5-24.747-16.401-39.599-16.401zM685.333 357.334c-14.852 0-29.094 5.901-39.599 16.401-10.5 10.505-16.401 24.747-16.401 39.599s5.901 29.094 16.401 39.599c10.505 10.5 24.747 16.401 39.599 16.401s29.094-5.901 39.599-16.401c10.5-10.505 16.401-24.747 16.401-39.599s-5.901-29.094-16.401-39.599c-10.505-10.5-24.747-16.401-39.599-16.401z" />
<glyph unicode="&#xe91f;" glyph-name="flame" d="M748.066 455.403c-12.941 29.129-31.757 55.275-55.266 76.798l-19.401 17.8c-0.657 0.588-1.451 1.005-2.308 1.215s-1.754 0.206-2.611-0.012c-0.853-0.217-1.643-0.641-2.295-1.234s-1.152-1.338-1.451-2.169l-8.666-24.867c-5.402-15.602-15.334-31.534-29.402-47.201-0.934-0.998-2.001-1.267-2.735-1.331-0.73-0.068-1.865 0.064-2.863 0.998-0.934 0.802-1.404 2.001-1.335 3.2 2.466 40.134-9.532 85.4-35.802 134.667-21.73 40.933-51.93 72.867-89.664 95.133l-27.533 16.2c-3.601 2.133-8.201-0.666-8-4.867l1.463-32c1.003-21.867-1.532-41.2-7.531-57.267-7.334-19.667-17.869-37.933-31.334-54.333-9.372-11.398-19.994-21.706-31.667-30.733-28.113-21.611-50.972-49.303-66.866-81-15.855-31.974-24.114-67.179-24.134-102.865 0-31.467 6.2-61.935 18.467-90.667 11.845-27.665 28.937-52.774 50.333-73.937 21.6-21.333 46.667-38.131 74.598-49.796 28.937-12.134 59.601-18.27 91.268-18.27s62.332 6.135 91.268 18.202c27.861 11.597 53.201 28.514 74.598 49.801 21.602 21.333 38.532 46.268 50.334 73.933 12.25 28.655 18.53 59.503 18.466 90.667 0 32.533-6.665 64.132-19.934 93.935zM667.332 229.201c-35.797-35.469-83.332-54.933-133.999-54.933s-98.202 19.465-134 54.933c-35.667 35.401-55.334 82.334-55.334 132.267 0 29.001 6.534 56.798 19.4 82.667 12.533 25.267 31.2 47.868 53.867 65.267 14.456 11.053 27.567 23.762 39.066 37.866 16.666 20.333 29.734 43 38.801 67.334 3.721 10.037 6.421 20.423 8.068 31 16.064-14.8 29.53-32.667 40.798-53.6 22.268-41.734 32.533-78.867 30.532-110.465-0.478-7.445 0.738-14.899 3.554-21.803 2.82-6.908 7.164-13.082 12.715-18.065 4.809-4.343 10.432-7.689 16.542-9.839 6.11-2.155 12.587-3.068 19.059-2.697 13.133 0.67 25.199 6.468 33.997 16.269 8.866 9.933 16.533 20.066 22.933 30.4 9.335-11.934 17.135-24.934 23.334-38.933 10.598-23.868 16-49.267 16-75.401 0-49.933-19.665-96.934-55.334-132.267z" />
<glyph unicode="&#xe920;" glyph-name="arr-chev-up" d="M678.81 332.037c-1.22-1.225-2.667-2.193-4.262-2.854s-3.302-1.003-5.030-1.003c-1.728 0-3.435 0.341-5.030 1.003s-3.042 1.63-4.262 2.854l-148.228 148.254-148.225-148.254c-2.465-2.466-5.808-3.849-9.294-3.849s-6.829 1.382-9.294 3.849c-2.465 2.466-3.849 5.807-3.849 9.293s1.385 6.831 3.849 9.293l157.52 157.521c1.22 1.225 2.667 2.193 4.262 2.854s3.307 1.003 5.030 1.003c1.728 0 3.439-0.341 5.030-1.003 1.596-0.661 3.046-1.63 4.262-2.854l157.521-157.521c1.225-1.216 2.193-2.667 2.854-4.262 0.661-1.591 1.003-3.302 1.003-5.030 0-1.724-0.341-3.435-1.003-5.030s-1.63-3.042-2.854-4.262v0z" />
<glyph unicode="&#xe921;" glyph-name="sort-asc" d="M152 42.667c6.365 0 12.47 2.53 16.971 7.031 4.501 4.497 7.029 10.603 7.029 16.969v720c0 6.365-2.528 12.47-7.029 16.971s-10.606 7.029-16.971 7.029c-6.365 0-12.47-2.528-16.971-7.029s-7.029-10.606-7.029-16.971v-720c0-6.366 2.528-12.471 7.029-16.969 4.501-4.501 10.606-7.031 16.971-7.031zM224 114.667c0-6.366 2.528-12.471 7.029-16.969 4.501-4.501 10.606-7.031 16.971-7.031h192c6.366 0 12.471 2.53 16.969 7.031 4.501 4.497 7.031 10.603 7.031 16.969v48c0 6.366-2.53 12.471-7.031 16.969-4.497 4.501-10.603 7.031-16.969 7.031h-192c-6.365 0-12.47-2.53-16.971-7.031-4.501-4.497-7.029-10.603-7.029-16.969v-48zM320 306.667c0-6.366 2.528-12.471 7.029-16.969 4.501-4.501 10.606-7.031 16.971-7.031h336c6.366 0 12.471 2.53 16.969 7.031 4.501 4.497 7.031 10.603 7.031 16.969v48c0 6.366-2.53 12.471-7.031 16.969-4.497 4.501-10.603 7.031-16.969 7.031h-336c-6.365 0-12.47-2.53-16.971-7.031-4.501-4.497-7.029-10.603-7.029-16.969v-48zM416 498.667c0-6.366 2.528-12.471 7.029-16.969 4.499-4.501 10.605-7.031 16.971-7.031h288c6.366 0 12.471 2.53 16.969 7.031 4.501 4.497 7.031 10.603 7.031 16.969v48c0 6.365-2.53 12.47-7.031 16.971-4.497 4.501-10.603 7.029-16.969 7.029h-288c-6.366 0-12.471-2.528-16.971-7.029s-7.029-10.606-7.029-16.971v-48zM512 690.667c0-6.365 2.53-12.47 7.031-16.971 4.497-4.501 10.603-7.029 16.969-7.029h336c6.366 0 12.471 2.528 16.969 7.029 4.501 4.501 7.031 10.606 7.031 16.971v48c0 6.365-2.53 12.47-7.031 16.971-4.497 4.501-10.603 7.029-16.969 7.029h-336c-6.366 0-12.471-2.528-16.969-7.029-4.501-4.501-7.031-10.606-7.031-16.971v-48z" />
<glyph unicode="&#xe924;" glyph-name="circle-fill" d="M853.333 426.667c0-188.513-152.82-341.333-341.333-341.333s-341.333 152.82-341.333 341.333c0 188.513 152.82 341.333 341.333 341.333s341.333-152.82 341.333-341.333z" />
<glyph unicode="&#xe927;" glyph-name="Frame-2173" d="M530.671 520c0 4.951-1.967 9.699-5.47 13.199-3.499 3.501-8.247 5.467-13.197 5.467-4.954 0-9.702-1.967-13.201-5.467s-5.466-8.249-5.466-13.199v-125.517l-53.35-88.853c-2.551-4.245-3.307-9.331-2.108-14.14 1.203-4.804 4.262-8.939 8.508-11.486 4.25-2.551 9.335-3.311 14.144-2.108 4.804 1.199 8.939 4.262 11.486 8.508l56 93.333c1.737 2.901 2.654 6.217 2.654 9.596v130.667zM456 725.334c-4.949 0-9.698-1.967-13.201-5.467-3.499-3.501-5.466-8.249-5.466-13.199s1.967-9.699 5.466-13.199c3.503-3.501 8.252-5.467 13.201-5.467h18.667v-39.947c-50.838-7.345-98.385-29.506-136.701-63.716s-65.703-78.951-78.739-128.636c-13.036-49.681-11.144-102.106 5.44-150.72s47.125-91.264 87.808-122.624l-22.474-22.473c-3.505-3.503-5.476-8.252-5.48-13.205s1.961-9.707 5.461-13.21c3.5-3.507 8.249-5.478 13.203-5.478 4.953-0.004 9.705 1.958 13.21 5.457l27.851 27.853c39.014-21.897 83.014-33.37 127.755-33.301 44.74-0.068 88.742 11.405 127.753 33.301l27.853-27.853c3.507-3.499 8.256-5.461 13.21-5.457 4.954 0 9.702 1.971 13.205 5.478 3.499 3.503 5.461 8.256 5.461 13.21-0.004 4.954-1.975 9.702-5.483 13.205l-22.434 22.473c40.683 31.36 71.223 74.014 87.804 122.633 16.585 48.619 18.47 101.043 5.431 150.729s-40.431 94.424-78.754 128.632c-38.319 34.207-85.871 56.364-136.713 63.703v39.947h18.667c4.949 0 9.698 1.967 13.201 5.467 3.499 3.501 5.466 8.249 5.466 13.199s-1.967 9.699-5.466 13.199c-3.503 3.501-8.252 5.467-13.201 5.467h-112zM494.754 612.662c11.482 0.873 23.010 0.873 34.492 0 57.745-4.46 111.514-31.11 150.033-74.359 38.515-43.25 58.786-99.736 56.555-157.605-2.231-57.873-26.79-112.631-68.523-152.785s-97.395-62.588-155.311-62.588c-57.916 0-113.578 22.434-155.311 62.588s-66.292 94.912-68.523 152.785c-2.231 57.869 18.038 114.355 56.555 157.605s92.288 69.899 150.033 74.359v0zM213.333 594.667c0-28.112 12.432-53.35 32.107-70.448 28.812 56.749 74.926 102.863 131.675 131.675-12.474 14.353-29.035 24.554-47.465 29.237s-37.853 3.624-55.665-3.035c-17.812-6.659-33.166-18.6-44.005-34.224s-16.647-34.188-16.646-53.204v0zM717.333 688c-28.113 0-53.35-12.432-70.447-32.107 56.747-28.812 102.861-74.926 131.674-131.675 14.353 12.474 24.555 29.035 29.235 47.465 4.685 18.431 3.627 37.853-3.034 55.665s-18.598 33.166-34.223 44.005c-15.625 10.839-34.189 16.647-53.205 16.646v0z" />
<glyph unicode="&#xe928;" glyph-name="lightning" d="M438.106 711.932c1.169 3.87 3.601 7.268 6.921 9.684 3.324 2.416 7.36 3.721 11.511 3.718h153.591c3.038-0.002 6.037-0.707 8.742-2.055s5.043-3.302 6.818-5.701c1.779-2.399 2.944-5.173 3.401-8.095 0.461-2.922 0.201-5.908-0.764-8.713l-68.348-199.423h146.142c3.597 0.004 7.121-0.977 10.172-2.825 3.051-1.852 5.504-4.497 7.087-7.633 1.579-3.14 2.223-6.647 1.852-10.125-0.367-3.477-1.737-6.784-3.942-9.545l-268.783-335.979c-2.752-3.46-6.669-5.867-11.063-6.805s-8.986-0.346-12.975 1.668c-3.993 2.018-7.128 5.338-8.861 9.374s-1.953 8.533-0.622 12.71l69.152 218.5h-127.593c-2.985 0-5.929 0.674-8.599 1.971s-4.991 3.183-6.78 5.504c-1.789 2.325-2.996 5.022-3.526 7.876-0.529 2.859-0.367 5.794 0.474 8.576l95.993 317.316zM470.899 688.002l-84.706-279.985h127.94c3.004 0.004 5.969-0.683 8.649-1.997 2.684-1.318 5.013-3.226 6.797-5.577 1.783-2.347 2.978-5.073 3.486-7.953 0.503-2.88 0.307-5.833-0.576-8.623l-46.003-145.331 180.395 225.481h-133.547c-3.042 0-6.037 0.704-8.742 2.052s-5.043 3.302-6.822 5.7c-1.775 2.398-2.944 5.175-3.401 8.098-0.461 2.923-0.196 5.905 0.764 8.713l68.348 199.422h-112.58z" />
<glyph unicode="&#xe929;" glyph-name="trophy" d="M306.141 706.667c0 4.951 1.972 9.699 5.483 13.199s8.272 5.467 13.237 5.467h374.391c4.966 0 9.728-1.967 13.235-5.467 3.511-3.501 5.483-8.249 5.483-13.199 0-20.085-0.448-39.2-1.271-57.344 14.793-2.443 28.949-7.814 41.626-15.799s23.625-18.419 32.196-30.689c8.567-12.27 14.588-26.127 17.698-40.753 3.115-14.627 3.26-29.727 0.427-44.41-2.833-14.682-8.585-28.651-16.917-41.084-8.333-12.429-19.076-23.070-31.599-31.296s-26.573-13.867-41.314-16.589c-14.746-2.722-29.888-2.479-44.535 0.725-29.577-69.623-70.31-103.671-106.065-112.41v-81.122l53.35-13.291c7.266-1.792 14.118-5.043 20.105-9.523l68.817-51.482c3.14-2.351 5.461-5.628 6.635-9.37 1.169-3.738 1.135-7.748-0.111-11.465-1.242-3.721-3.627-6.95-6.814-9.242s-7.014-3.524-10.944-3.524h-374.391c-3.929 0-7.758 1.233-10.946 3.524s-5.571 5.521-6.813 9.242c-1.242 3.716-1.28 7.727-0.109 11.465 1.171 3.742 3.493 7.019 6.636 9.37l68.813 51.482c5.99 4.48 12.842 7.731 20.105 9.523l53.351 13.291v81.122c-35.755 8.738-76.488 42.786-106.065 112.448-14.654-3.221-29.807-3.482-44.564-0.768-14.757 2.718-28.819 8.354-41.355 16.58s-23.292 18.871-31.633 31.309c-8.34 12.442-14.097 26.419-16.929 41.115s-2.682 29.807 0.44 44.443c3.122 14.636 9.154 28.5 17.74 40.773s19.549 22.705 32.246 30.682c12.696 7.977 26.866 13.336 41.674 15.76-0.881 19.090-1.318 38.197-1.31 57.307zM309.847 611.84c-19.536-3.564-36.852-14.722-48.139-31.017s-15.619-36.395-12.044-55.876c3.575-19.479 14.764-36.746 31.105-48.002s36.498-15.578 56.034-12.011c-12.467 39.198-22.014 87.583-26.956 146.906zM687.347 464.935c19.537-3.567 39.693 0.755 56.034 12.011s27.529 28.523 31.104 48.002c3.575 19.481-0.759 39.58-12.045 55.876s-28.604 27.453-48.137 31.017c-4.979-59.36-14.528-107.708-26.957-146.906zM343.73 688c0.262-19.302 0.973-37.557 2.097-54.843 4.867-75.712 17.109-132.383 32.572-174.234 32.348-87.509 76.902-106.923 96.217-106.923 4.966 0 9.728-1.967 13.239-5.466 3.511-3.503 5.483-8.252 5.483-13.201v-97.438c0-8.324-2.79-16.41-7.923-22.972-5.137-6.558-12.322-11.221-20.42-13.244l-53.387-13.291c-2.424-0.602-4.702-1.681-6.702-3.174l-23.886-17.882h262.074l-23.885 17.882c-2.014 1.498-4.305 2.577-6.741 3.174l-53.35 13.291c-8.094 2.022-15.283 6.686-20.416 13.244-5.137 6.562-7.923 14.647-7.923 22.972v97.438c0 4.949 1.971 9.698 5.483 13.201 3.507 3.499 8.269 5.466 13.235 5.466 19.319 0 63.872 19.413 96.218 106.923 15.462 41.813 27.703 98.56 32.572 174.234 1.122 17.286 1.835 35.541 2.099 54.843h-336.654z" />
<glyph unicode="&#xe92a;" glyph-name="truck" horiz-adv-x="998" d="M780.816 861.92c-18.637 0-36.144-4.967-51.199-13.72-15.567 8.988-33.226 13.719-51.199 13.719s-35.632-4.73-51.199-13.719c-15.567-8.988-28.493-21.913-37.478-37.478s-13.72-33.224-13.72-51.198v-51.199h-25.598c-6.785 0-13.299-2.698-18.103-7.497s-7.497-11.314-7.497-18.103v-230.393c0-27.159 10.785-53.2 29.991-72.405s45.248-29.991 72.405-29.991h204.791c27.159 0 53.202 10.785 72.405 29.991s29.991 45.248 29.991 72.405v230.393c0 6.788-2.698 13.3-7.497 18.103s-11.314 7.497-18.103 7.497h-25.598v51.199c0 27.159-10.789 53.202-29.991 72.405s-45.248 29.991-72.405 29.991zM832.014 708.325h-102.395v51.199c0 13.577 5.397 26.601 14.996 36.205s22.624 14.996 36.205 14.996c13.577 0 26.601-5.397 36.205-14.996s14.996-22.624 14.996-36.205v-51.199zM678.421 759.523v-51.199h-51.199v51.199c-0.006 7.817 1.779 15.534 5.215 22.554s8.437 13.161 14.617 17.949c6.178 4.789 13.371 8.104 21.024 9.68s15.572 1.383 23.141-0.571c-8.191-14.695-12.801-31.64-12.801-49.611zM524.826 755.169v4.353h-166.393c-49.508 0-89.598-40.141-89.598-89.598v-63.997h-45.158c-14.268 0-28.256-3.977-40.396-11.482-12.134-7.508-21.942-18.246-28.312-31.013l-82.84-165.626c-5.336-10.649-8.124-22.391-8.142-34.304v-192.761c0-20.366 8.089-39.899 22.493-54.304s33.94-22.493 54.304-22.493h79.357c5.876-28.933 21.572-54.949 44.436-73.635 22.858-18.681 51.477-28.893 81.002-28.893s58.145 10.212 81.002 28.893c22.862 18.688 38.557 44.701 44.436 73.635h56.32c5.876-28.933 21.572-54.949 44.436-73.635 22.86-18.681 51.477-28.893 81.002-28.893s58.141 10.212 81.003 28.893c22.86 18.688 38.557 44.701 44.433 73.635h13.261c23.762 0 46.55 9.437 63.354 26.245s26.245 39.592 26.245 63.356v123.181c-15.411-5.173-31.898-7.987-49.047-7.987h-2.153v-115.199c0-21.196-17.202-38.401-38.401-38.401h-13.261c-5.876 28.933-21.574 54.949-44.433 73.635-22.86 18.681-51.477 28.893-81.003 28.893s-58.141-10.212-81.002-28.893c-22.862-18.688-38.557-44.701-44.436-73.635h-56.32c-6.782 33.263-26.503 62.463-54.816 81.192-28.312 18.721-62.906 25.429-96.166 18.648v424.945c0 10.184 4.046 19.954 11.25 27.152s16.968 11.25 27.152 11.25h119.549c3.827 10.804 10.025 20.616 18.129 28.718 8.104 8.106 17.914 14.297 28.717 18.127zM268.836 221.943c-24.577-18.432-42.342-45.567-48.638-76.798h-79.357c-6.785 0-13.299 2.697-18.103 7.497s-7.497 11.316-7.497 18.103v179.193h153.595v-127.994zM268.836 401.136h-137.828l69.731 139.463c2.129 4.247 5.399 7.817 9.437 10.314s8.699 3.819 13.448 3.819h45.207v-153.595zM652.821 196.344c20.368 0 39.9-8.089 54.302-22.493s22.493-33.94 22.493-54.304c0-20.366-8.089-39.899-22.493-54.304s-33.937-22.493-54.302-22.493c-20.368 0-39.9 8.089-54.302 22.493-14.405 14.403-22.493 33.94-22.493 54.304s8.089 39.899 22.493 54.304c14.402 14.403 33.937 22.493 54.302 22.493zM422.43 119.547c0-10.088-1.986-20.072-5.847-29.389-3.857-9.317-9.515-17.782-16.644-24.919s-15.6-12.786-24.919-16.644c-9.317-3.864-19.303-5.847-29.389-5.847s-20.072 1.986-29.389 5.847c-9.317 3.857-17.782 9.515-24.919 16.644s-12.786 15.6-16.644 24.919c-3.864 9.317-5.847 19.303-5.847 29.389 0 20.366 8.089 39.899 22.493 54.304s33.94 22.493 54.304 22.493c20.366 0 39.899-8.089 54.304-22.493s22.493-33.94 22.493-54.304z" />
<glyph unicode="&#xe92b;" glyph-name="bell" d="M722.667 393.937v62.063h-48v-72c0-6.366 2.53-12.467 7.031-16.969l64.969-64.969v-38.063h-528v38.063l64.968 64.969c4.501 4.501 7.031 10.603 7.032 16.969v96c-0.067 33.725 8.767 66.87 25.61 96.088s41.098 53.474 70.315 70.318c29.218 16.844 62.364 25.679 96.087 25.613s66.837-9.030 95.987-25.987v53.64c-22.844 10.115-47.142 16.563-72 19.104v49.224h-48v-49.2c-59.17-6.022-114.006-33.771-153.903-77.88s-62.022-101.444-62.097-160.92v-86.063l-64.968-64.969c-4.501-4.501-7.031-10.603-7.032-16.969v-72c0-6.366 2.528-12.471 7.029-16.969 4.501-4.501 10.606-7.031 16.971-7.031h168v-24c0-31.825 12.643-62.349 35.147-84.851 22.505-22.507 53.028-35.149 84.853-35.149s62.349 12.642 84.851 35.149c22.507 22.502 35.149 53.026 35.149 84.851v24h168c6.366 0 12.471 2.53 16.969 7.031 4.501 4.497 7.031 10.603 7.031 16.969v72c0 6.366-2.53 12.467-7.031 16.969l-64.969 64.969zM554.667 192c0-19.098-7.586-37.41-21.090-50.91-13.5-13.504-31.812-21.090-50.91-21.090s-37.41 7.586-50.91 21.090c-13.504 13.5-21.090 31.812-21.090 50.91v24h144v-24zM722.667 504c53.018 0 96 42.981 96 96s-42.982 96-96 96c-53.018 0-96-42.981-96-96s42.982-96 96-96z" />
<glyph unicode="&#xe92d;" glyph-name="flag" d="M213.333 739.556c0 15.709 12.735 28.445 28.445 28.445h492.976c12.164-0.005 24.081-3.474 34.342-10.001s18.449-15.843 23.603-26.857c5.158-11.013 7.074-23.267 5.517-35.329s-6.515-23.429-14.298-32.773l-114.005-136.818 114.001-136.812c7.782-9.344 12.745-20.719 14.302-32.781 1.557-12.058-0.358-24.316-5.517-35.328-5.154-11.012-13.342-20.326-23.603-26.854s-22.17-9.997-34.33-10.001h-464.545v-184.892c0-15.71-12.735-28.442-28.444-28.442s-28.445 12.732-28.445 28.442v640.001zM270.222 341.334h464.524c1.353 0 2.675 0.384 3.814 1.109s2.048 1.762 2.624 2.987c0.572 1.225 0.785 2.586 0.61 3.925-0.171 1.335-0.721 2.598-1.583 3.635v0l-129.173 155.025c-8.789 10.547-8.789 25.868 0 36.416l129.169 155.018c0.862 1.038 1.417 2.304 1.587 3.642 0.175 1.34-0.038 2.702-0.61 3.925-0.576 1.224-1.485 2.259-2.624 2.984s-2.462 1.11-3.81 1.111v0h-464.528v-369.778z" />
<glyph unicode="&#xe92f;" glyph-name="gift" d="M813.333 581.334h-76.8c4.8 19.2 4.8 38.4 4.8 57.6-4.8 14.4-9.6 28.8-19.2 43.2s-19.2 24-33.6 28.8c-14.4 4.8-28.8 14.4-43.2 14.4s-28.8 0-43.2-9.6c-33.6-9.6-57.6-33.6-76.8-62.4-19.2 28.8-43.2 52.8-76.8 62.4-14.4 4.8-28.8 9.6-43.2 9.6s-28.8-4.8-43.2-14.4c-14.4-4.8-24-14.4-33.6-28.8-9.6-9.6-14.4-28.8-19.2-43.2 0-19.2 0-38.4 4.8-57.6h-76.8l-24-24v-432l24-24h576l24 24v432l-24 24zM501.333 149.334h-240v384h240v-384zM501.333 581.334h-144v9.6c-4.8 14.4-4.8 24-4.8 38.4 4.8 9.6 4.8 19.2 14.4 24 4.8 9.6 14.4 14.4 24 19.2 4.8 4.8 14.4 4.8 24 4.8s19.2 0 28.8-4.8c14.4-4.8 28.8-14.4 38.4-28.8s19.2-28.8 19.2-48v-14.4zM549.333 595.734c0 19.2 9.6 33.6 19.2 48s24 24 38.4 28.8c9.6 4.8 19.2 4.8 28.8 4.8s19.2 0 28.8-4.8c9.6-4.8 14.4-9.6 24-19.2 4.8-4.8 4.8-14.4 9.6-24 0-14.4 0-24-4.8-38.4 0-4.8 0-4.8-4.8-9.6h-139.2v14.4zM789.333 149.334h-240v384h240v-384z" />
<glyph unicode="&#xe931;" glyph-name="sale" d="M435.627 566.24c26.56 0 48-21.44 48-48 0-26.558-21.44-48.002-48-48.002s-48 21.444-48 48.002c0 26.56 21.44 48 48 48zM595.627 342.238c26.56 0 48-21.436 48-48 0-26.56-21.44-48-48-48s-48 21.44-48 48c0 26.564 21.44 48 48 48zM400.747 246.238l-45.12 45.12 274.88 274.882 45.12-45.12-274.88-274.882zM728.427 699.040l19.52-123.52 112.32-57.28-56.64-112.002 56.96-112-113.28-57.28-19.52-123.516-124.48 19.516-88.64-88.64-88.96 89.92-123.52-20.476-19.84 124.476-111.68 56.96 56.96 112-56.64 111.042 112.32 57.92 19.52 122.24 123.84-20.16 88.96 89.76 88.32-88.48 124.48 19.52zM774.827 490.398l-83.2 43.842-16 92.48-92.8-13.44-67.2 64.96-67.2-64.96-92.8 13.44-16-92.48-83.2-43.842 41.6-84.16-41.6-84.16 83.2-43.84 16-92.476 92.8 13.44 67.2-64.964 67.2 64.964 92.8-13.44 16 92.476 83.2 43.84-41.6 84.16 41.6 84.16z" />
<glyph unicode="&#xe933;" glyph-name="search" d="M367.596 334.221h30.699l10.88 9.6c-39.398 41.813-61.052 95.194-61.009 150.4 0 45.711 14.814 90.394 42.568 128.4s67.203 67.628 113.356 85.12c46.153 17.492 96.939 22.069 145.937 13.152 48.994-8.918 94.003-30.929 129.327-63.25s59.379-73.501 69.124-118.333c9.749-44.833 4.745-91.301-14.37-133.528-19.119-42.231-51.494-78.327-93.030-103.723s-90.372-38.946-140.326-38.946c-62.566 0-120.077 20.975-164.373 55.821l-10.493-9.954v-28.092l-194.295-177.421-57.9 52.979 193.907 177.775zM600.751 334.221c96.759 0 174.865 71.467 174.865 160 0 88.535-78.106 160.001-174.865 160.001s-174.867-71.467-174.867-160.001c0-88.533 78.107-160 174.867-160z" />
<glyph unicode="&#xe934;" glyph-name="headphone" d="M533.333 743.112c-89.583 0-175.5-35.587-238.845-98.933s-98.933-149.262-98.933-238.845v-67.554h67.556c17.917 0 35.1-7.117 47.769-19.789 12.669-12.668 19.787-29.85 19.787-47.77v-202.667c0-17.916-7.118-35.098-19.787-47.77-12.669-12.668-29.852-19.785-47.769-19.785h-67.556c-17.917 0-35.1 7.117-47.769 19.785-12.669 12.672-19.787 29.854-19.787 47.77v337.779c0 53.231 10.484 105.937 30.854 155.114s50.227 93.861 87.866 131.5c37.638 37.639 82.322 67.496 131.5 87.866s101.883 30.854 155.114 30.854c53.231 0 105.937-10.484 155.115-30.854s93.862-50.227 131.499-87.866c37.641-37.638 67.494-82.322 87.868-131.5 20.369-49.177 30.852-101.883 30.852-155.114v-337.779c0-17.916-7.117-35.098-19.785-47.77-12.672-12.668-29.854-19.785-47.77-19.785h-67.558c-17.916 0-35.098 7.117-47.77 19.785-12.668 12.672-19.785 29.854-19.785 47.77v202.667c0 17.92 7.117 35.102 19.785 47.77 12.672 12.672 29.854 19.789 47.77 19.789h67.558v67.554c0 89.583-35.588 175.5-98.935 238.845-63.343 63.345-149.261 98.933-238.844 98.933z" />
<glyph unicode="&#xe938;" glyph-name="about-us" d="M351.040 671.467c3.004 3.512 6.734 6.333 10.932 8.266s8.765 2.935 13.388 2.934h273.28c4.621 0 9.19-1.001 13.389-2.934s7.927-4.753 10.931-8.266l83.486-97.408c7.458-8.698 11.554-19.776 11.554-31.232v-8.16c0-15.839-4.945-31.285-14.148-44.175-9.207-12.89-22.208-22.579-37.188-27.721-14.985-5.141-31.198-5.47-46.379-0.947-15.177 4.527-28.561 13.683-38.285 26.185-7.1-9.143-16.196-16.542-26.598-21.628-10.398-5.086-21.824-7.723-33.404-7.714-11.575-0.013-23.002 2.624-33.404 7.71-10.398 5.086-19.494 12.489-26.594 21.632-7.1-9.143-16.196-16.546-26.594-21.632-10.402-5.086-21.828-7.723-33.404-7.71-11.58-0.013-23.006 2.624-33.406 7.71s-19.498 12.489-26.596 21.632c-9.722-12.501-23.108-21.658-38.287-26.185-15.179-4.523-31.392-4.194-46.375 0.947s-27.984 14.831-37.188 27.721c-9.204 12.89-14.152 28.336-14.15 44.175v8.16c0 11.456 4.098 22.534 11.552 31.232l83.488 97.408zM408 534.667c0-11.669 4.636-22.863 12.887-31.115s19.441-12.885 31.115-12.885c11.669 0 22.861 4.634 31.113 12.885s12.885 19.445 12.885 31.115c0 4.244 1.685 8.313 4.685 11.313 3.004 3.001 7.070 4.687 11.315 4.687s8.311-1.686 11.315-4.687c2.999-3 4.685-7.070 4.685-11.313 0-11.669 4.634-22.863 12.885-31.115s19.443-12.885 31.113-12.885c11.674 0 22.865 4.634 31.117 12.885s12.885 19.445 12.885 31.115c0 4.244 1.685 8.313 4.685 11.313 3.004 3.001 7.070 4.687 11.315 4.687s8.311-1.686 11.315-4.687c2.999-3 4.685-7.070 4.685-11.313 0-11.669 4.634-22.863 12.885-31.115s19.443-12.885 31.117-12.885c11.669 0 22.861 4.634 31.113 12.885s12.885 19.445 12.885 31.115v8.16c0 3.814-1.361 7.502-3.84 10.4l-83.52 97.44h-273.28l-83.52-97.44c-2.479-2.898-3.84-6.586-3.84-10.4v-8.16c0-11.669 4.636-22.863 12.887-31.115s19.443-12.885 31.113-12.885c11.669 0 22.861 4.634 31.113 12.885s12.887 19.445 12.887 31.115c0 4.244 1.686 8.313 4.687 11.313s7.070 4.687 11.313 4.687c4.244 0 8.313-1.686 11.313-4.687s4.687-7.070 4.687-11.313zM304 442.667c4.244 0 8.313-1.685 11.314-4.685 3-3.004 4.686-7.070 4.686-11.315v-192h384v192c0 4.245 1.685 8.311 4.685 11.315 3.004 2.999 7.070 4.685 11.315 4.685s8.311-1.685 11.315-4.685c2.999-3.004 4.685-7.070 4.685-11.315v-192h16c4.245 0 8.311-1.685 11.315-4.685 2.999-3.004 4.685-7.070 4.685-11.315s-1.685-8.311-4.685-11.315c-3.004-2.999-7.070-4.685-11.315-4.685h-480c-4.244 0-8.313 1.685-11.314 4.685-3 3.004-4.686 7.070-4.686 11.315s1.686 8.311 4.686 11.315c3.001 2.999 7.070 4.685 11.314 4.685h16v192c0 4.245 1.686 8.311 4.686 11.315 3.001 2.999 7.070 4.685 11.314 4.685zM368 426.667c4.244 0 8.313-1.685 11.313-4.685 3.001-3.004 4.687-7.070 4.687-11.315v-112h256v112c0 4.245 1.685 8.311 4.685 11.315 3.004 2.999 7.070 4.685 11.315 4.685s8.311-1.685 11.315-4.685c2.999-3.004 4.685-7.070 4.685-11.315v-112c0-8.486-3.371-16.627-9.374-22.626-5.999-6.003-14.14-9.374-22.626-9.374h-256c-8.487 0-16.626 3.371-22.627 9.374-6.001 5.999-9.373 14.14-9.373 22.626v112c0 4.245 1.686 8.311 4.687 11.315 3 2.999 7.070 4.685 11.313 4.685z" />
<glyph unicode="&#xe939;" glyph-name="installment" d="M405.333 682.667c-15.842 0-31.036-6.293-42.238-17.495s-17.495-26.396-17.495-42.238v-209.067h29.867v209.067c0 7.921 3.147 15.518 8.748 21.119s13.198 8.748 21.119 8.748h209.067c7.923 0 15.518-3.147 21.12-8.748s8.747-13.198 8.747-21.119v-328.533h-89.6v-29.867h119.467c23.765 0 46.554 9.438 63.356 26.244 16.806 16.802 26.244 39.59 26.244 63.356v59.733h-89.6v209.067c0 15.842-6.293 31.036-17.498 42.238-11.2 11.202-26.394 17.495-42.236 17.495h-209.067zM733.867 354.134c0-15.842-6.293-31.036-17.493-42.236-11.204-11.204-26.398-17.498-42.24-17.498v89.6h59.733v-29.867zM450.133 593.067c-3.959 0-7.757-1.574-10.56-4.374-2.799-2.801-4.373-6.599-4.373-10.56s1.574-7.759 4.373-10.56c2.803-2.801 6.601-4.374 10.56-4.374h119.467c3.959 0 7.761 1.573 10.56 4.374s4.373 6.599 4.373 10.56c0 3.961-1.574 7.759-4.373 10.56s-6.601 4.374-10.56 4.374h-119.467zM435.2 518.4c0 3.961 1.574 7.759 4.373 10.56 2.803 2.8 6.601 4.374 10.56 4.374h119.467c3.959 0 7.761-1.574 10.56-4.374s4.373-6.599 4.373-10.56c0-3.961-1.574-7.757-4.373-10.56-2.799-2.799-6.601-4.373-10.56-4.373h-119.467c-3.959 0-7.757 1.574-10.56 4.373-2.799 2.803-4.373 6.599-4.373 10.56zM480 384c11.883 0 23.275-4.719 31.68-13.12 8.401-8.405 13.12-19.797 13.12-31.68v-89.6c0-11.883-4.719-23.275-13.12-31.68-8.405-8.401-19.797-13.12-31.68-13.12h-179.2c-11.882 0-23.277 4.719-31.678 13.12-8.402 8.405-13.122 19.797-13.122 31.68v89.6c0 11.883 4.72 23.275 13.122 31.68 8.401 8.401 19.796 13.12 31.678 13.12h179.2zM494.933 249.6v29.867c-11.883 0-23.275-4.719-31.68-13.12-8.401-8.405-13.12-19.797-13.12-31.68h29.867c0 3.959 1.574 7.757 4.373 10.56 2.803 2.799 6.601 4.373 10.56 4.373zM494.933 339.2c-3.959 0-7.757 1.574-10.56 4.373-2.799 2.799-4.373 6.601-4.373 10.56h-29.867c0-11.883 4.719-23.275 13.12-31.68 8.405-8.401 19.797-13.12 31.68-13.12v29.867zM300.8 354.134c0-3.959-1.573-7.761-4.374-10.56s-6.599-4.373-10.56-4.373v-29.867c11.882 0 23.277 4.719 31.678 13.12 8.402 8.405 13.122 19.797 13.122 31.68h-29.867zM285.867 249.6c3.961 0 7.759-1.574 10.56-4.373 2.801-2.803 4.374-6.601 4.374-10.56h29.867c0 11.883-4.72 23.275-13.122 31.68-8.401 8.401-19.796 13.12-31.678 13.12v-29.867zM390.4 339.2c-11.882 0-23.277-4.719-31.678-13.12-8.402-8.405-13.122-19.797-13.122-31.68s4.72-23.275 13.122-31.68c8.401-8.401 19.796-13.12 31.678-13.12s23.277 4.719 31.678 13.12c8.403 8.405 13.122 19.797 13.122 31.68s-4.719 23.275-13.122 31.68c-8.401 8.401-19.796 13.12-31.678 13.12z" />
<glyph unicode="&#xe93a;" glyph-name="blog" d="M298.667 266.667h186.667v-37.333h-186.667v37.333zM298.667 378.667h186.667v-37.333h-186.667v37.333zM709.333 453.334h-373.333c-9.901 0-19.397 3.934-26.399 10.935s-10.935 16.495-10.935 26.398v112c0 9.901 3.933 19.397 10.935 26.399s16.497 10.935 26.399 10.935h373.333c9.903 0 19.396-3.933 26.398-10.935s10.935-16.497 10.935-26.399v-112c0-9.903-3.934-19.396-10.935-26.398s-16.495-10.935-26.398-10.935zM336 602.667v-112h373.333v112h-373.333zM709.333 192h-112c-9.903 0-19.396 3.934-26.398 10.935s-10.935 16.495-10.935 26.398v112c0 9.903 3.934 19.396 10.935 26.398s16.495 10.935 26.398 10.935h112c9.903 0 19.396-3.934 26.398-10.935s10.935-16.495 10.935-26.398v-112c0-9.903-3.934-19.396-10.935-26.398s-16.495-10.935-26.398-10.935zM597.333 341.334v-112h112v112h-112z" />
<glyph unicode="&#xe93b;" glyph-name="contact" d="M349.333 496h37.333c0.015 14.848 5.92 29.083 16.419 39.581s24.733 16.404 39.581 16.419v37.333c-24.745-0.029-48.467-9.873-65.964-27.369s-27.34-41.219-27.369-65.964zM274.668 496h37.333c0.040 34.643 13.819 67.855 38.315 92.352s57.709 38.275 92.35 38.315v37.333c-44.539-0.049-87.242-17.765-118.737-49.261s-49.211-74.198-49.261-118.739zM312.002 197.334h3.174c366.8 21.094 418.879 330.586 426.158 425.040 1.139 14.807-3.652 29.46-13.316 40.736s-23.411 18.25-38.221 19.389c-1.481 0.112-2.97 0.168-4.463 0.168h-98.372c-7.475 0.007-14.784-2.231-20.975-6.424s-10.978-10.149-13.743-17.096l-28.373-69.813c-2.735-6.786-3.409-14.225-1.95-21.394s4.992-13.749 10.163-18.926l39.757-40.132c-6.182-35.307-23.078-67.853-48.388-93.231s-57.813-42.359-93.103-48.636l-40.507 40.132c-5.254 5.111-11.898 8.563-19.101 9.924s-14.648 0.572-21.405-2.27l-70.373-28.19c-6.842-2.85-12.679-7.676-16.768-13.862-4.089-6.182-6.244-13.444-6.192-20.855v-98.56c0-14.852 5.9-29.094 16.402-39.599 10.502-10.5 24.746-16.401 39.598-16.401zM685.333 645.334c2.453 0.007 4.881-0.468 7.151-1.399 2.266-0.931 4.326-2.3 6.067-4.028 1.737-1.728 3.119-3.782 4.066-6.044 0.943-2.262 1.434-4.688 1.442-7.139 0-0.523-0.021-1.039-0.060-1.549-8.585-110.507-63.65-371.84-390.878-390.507-4.94-0.294-9.796 1.382-13.5 4.668-3.703 3.281-5.951 7.902-6.249 12.843l-0.038 1.156v98.56l70.374 28.186 53.574-53.197 8.96 1.118c162.4 20.348 184.425 182.746 184.425 184.427l1.122 8.96-53.013 53.573 27.998 70.374h98.56z" />
<glyph unicode="&#xe93c;" glyph-name="hamburger" d="M213.333 212.544c0 7.334 2.861 14.366 7.953 19.554 5.092 5.184 11.998 8.098 19.199 8.098h543.029c7.202 0 14.11-2.914 19.2-8.098 5.094-5.188 7.953-12.22 7.953-19.554s-2.859-14.37-7.953-19.554c-5.090-5.188-11.998-8.102-19.2-8.102h-543.029c-7.201 0-14.107 2.914-19.199 8.102-5.092 5.184-7.953 12.22-7.953 19.554zM213.333 433.78c0 7.334 2.861 14.366 7.953 19.554 5.092 5.184 11.998 8.098 19.199 8.098h543.029c7.202 0 14.11-2.914 19.2-8.098 5.094-5.188 7.953-12.22 7.953-19.554s-2.859-14.37-7.953-19.554c-5.090-5.188-11.998-8.102-19.2-8.102h-543.029c-7.201 0-14.107 2.914-19.199 8.102-5.092 5.184-7.953 12.22-7.953 19.554zM213.333 655.013c0 7.334 2.861 14.368 7.953 19.555s11.998 8.1 19.199 8.1h543.029c7.202 0 14.11-2.914 19.2-8.1 5.094-5.186 7.953-12.22 7.953-19.555s-2.859-14.368-7.953-19.555c-5.090-5.186-11.998-8.1-19.2-8.1h-543.029c-7.201 0-14.107 2.914-19.199 8.1s-7.953 12.22-7.953 19.555z" />
<glyph unicode="&#xe93f;" glyph-name="tag" d="M442.667 552c0-14.852-5.901-29.096-16.402-39.598s-24.746-16.402-39.598-16.402c-14.852 0-29.096 5.901-39.598 16.402s-16.402 24.746-16.402 39.598c0 14.852 5.9 29.096 16.402 39.598s24.746 16.402 39.598 16.402c14.852 0 29.096-5.9 39.598-16.402s16.402-24.746 16.402-39.598zM405.333 552c0 4.951-1.967 9.699-5.467 13.199s-8.249 5.467-13.199 5.467c-4.951 0-9.699-1.967-13.199-5.467s-5.467-8.249-5.467-13.199c0-4.951 1.967-9.699 5.467-13.199s8.249-5.467 13.199-5.467c4.951 0 9.699 1.967 13.199 5.467s5.467 8.249 5.467 13.199zM293.333 682.667h171.213c9.899-0.002 19.392-3.937 26.394-10.939l261.333-261.334c6.997-7.002 10.931-16.495 10.931-26.394s-3.934-19.392-10.931-26.394l-171.213-171.213c-7.002-6.997-16.495-10.931-26.394-10.931s-19.392 3.934-26.394 10.931l-261.334 261.333c-7.002 7.002-10.937 16.495-10.939 26.394v171.213c0 9.901 3.933 19.397 10.935 26.399s16.497 10.935 26.399 10.935zM293.333 474.121l261.333-261.333 171.213 171.213-261.333 261.333h-171.213v-171.213z" />
<glyph unicode="&#xe942;" glyph-name="game" d="M680 521.372c0-6.365-2.53-12.469-7.031-16.97-4.497-4.501-10.603-7.031-16.969-7.031s-12.471 2.53-16.969 7.031c-4.501 4.501-7.031 10.605-7.031 16.97s2.53 12.469 7.031 16.97c4.497 4.501 10.603 7.030 16.969 7.030s12.471-2.529 16.969-7.030c4.501-4.501 7.031-10.605 7.031-16.97zM608 449.37c6.366 0 12.471 2.53 16.969 7.031 4.501 4.501 7.031 10.607 7.031 16.969 0 6.366-2.53 12.471-7.031 16.973-4.497 4.501-10.603 7.027-16.969 7.027s-12.471-2.526-16.969-7.027c-4.501-4.501-7.031-10.607-7.031-16.973 0-6.362 2.53-12.467 7.031-16.969 4.497-4.501 10.603-7.031 16.969-7.031zM728 473.37c0-6.362-2.53-12.467-7.031-16.969-4.497-4.501-10.603-7.031-16.969-7.031s-12.471 2.53-16.969 7.031c-4.501 4.501-7.031 10.607-7.031 16.969 0 6.366 2.53 12.471 7.031 16.973 4.497 4.501 10.603 7.027 16.969 7.027s12.471-2.526 16.969-7.027c4.501-4.501 7.031-10.607 7.031-16.973zM656 401.37c6.366 0 12.471 2.53 16.969 7.031 4.501 4.501 7.031 10.607 7.031 16.969 0 6.366-2.53 12.471-7.031 16.973-4.497 4.501-10.603 7.027-16.969 7.027s-12.471-2.526-16.969-7.027c-4.501-4.501-7.031-10.607-7.031-16.973 0-6.362 2.53-12.467 7.031-16.969 4.497-4.501 10.603-7.031 16.969-7.031zM344 545.372h48v-48.002h48v-48h-48v-48h-48v48h-48v48h48v48.002zM274.45 654.187c-0.82 3.048-1.030 6.227-0.62 9.356s1.434 6.147 3.013 8.88c1.578 2.733 3.68 5.128 6.185 7.048s5.364 3.326 8.414 4.14l92.736 24.864c3.188 0.85 6.517 1.033 9.779 0.538s6.387-1.657 9.18-3.413c2.793-1.757 5.193-4.070 7.052-6.797s3.135-5.806 3.75-9.048c31.438 3.792 64.799 5.616 98.062 5.616 34.56 0 69.265-1.968 101.76-6.048 0.563 3.291 1.805 6.428 3.648 9.212s4.245 5.152 7.053 6.955c2.812 1.803 5.965 2.999 9.263 3.513s6.669 0.335 9.894-0.528l92.736-24.864c3.537-0.947 6.814-2.692 9.574-5.1s4.932-5.417 6.349-8.794c1.417-3.378 2.044-7.035 1.83-10.692s-1.263-7.216-3.068-10.405c6.72-4.32 12.77-9.12 17.907-14.256 19.584-19.584 37.44-50.4 52.557-85.056 15.36-35.184 28.753-76.368 38.643-118.369 9.886-41.997 16.32-85.44 17.472-125.086 1.152-39.168-2.833-76.898-15.744-106.082-5.888-13.103-15.765-24.009-28.224-31.164-12.454-7.155-26.854-10.189-41.139-8.674-30.528 3.217-53.517 18.91-72.623 37.103-11.759 11.136-23.808 25.25-35.473 38.784-6.046 7.104-11.998 14.016-17.664 20.305-34.944 38.592-76.655 73.297-154.752 73.297-78.093 0-119.806-34.705-154.75-73.297-5.712-6.289-11.616-13.201-17.664-20.305-11.664-13.534-23.712-27.601-35.472-38.784-19.104-18.24-42.096-33.886-72.624-37.103-14.284-1.515-28.682 1.519-41.138 8.674s-22.333 18.061-28.221 31.164c-12.96 29.184-16.896 66.961-15.792 106.082 1.152 39.646 7.68 83.038 17.52 125.086 9.888 42.001 23.328 83.185 38.64 118.369 15.12 34.656 32.976 65.472 52.512 85.056 6.275 6.155 13.251 11.552 20.784 16.080-0.553 1.225-1.002 2.493-1.344 3.792v-0.048zM372.178 634.411c-42.096-8.88-70.512-21.264-83.184-33.984-13.248-13.248-28.176-37.584-42.48-70.32-15.175-35.596-27.189-72.46-35.904-110.161-9.207-37.867-14.657-76.548-16.272-115.486-1.056-36.241 2.976-65.664 11.664-85.248 1.779-3.814 4.708-6.976 8.375-9.045 3.667-2.065 7.889-2.931 12.073-2.475 15.696 1.63 29.28 9.549 44.592 24.094 10.176 9.698 19.2 20.305 29.52 32.354 6.384 7.488 13.248 15.501 21.12 24.192 39.648 43.823 93.264 89.037 190.318 89.037 97.058 0 150.673-45.214 190.323-89.037 7.872-8.691 14.733-16.704 21.12-24.192 10.27-12.049 19.341-22.656 29.517-32.354 15.266-14.545 28.851-22.464 44.595-24.145 4.19-0.448 8.414 0.422 12.083 2.5 3.665 2.074 6.592 5.248 8.363 9.071 8.64 19.584 12.719 48.96 11.665 85.248-1.617 38.938-7.066 77.619-16.273 115.486-8.717 37.7-20.732 74.564-35.904 110.161-14.302 32.736-29.278 57.12-42.479 70.32-12.672 12.72-41.088 25.104-83.183 33.984-40.802 8.592-90.099 12.96-139.827 12.96s-99.022-4.368-139.822-12.96z" />
<glyph unicode="&#xe943;" glyph-name="network" d="M400 650.667v74.667h-186.667v-186.667h74.667v-224h-74.667v-186.667h186.667v74.667h224v-74.667h186.667v186.667h-74.667v224h74.667v186.667h-186.667v-74.667h-224zM624 613.334v-74.667h74.667v-224h-74.667v-74.667h-224v74.667h-74.667v224h74.667v74.667h224zM661.333 688h112v-112h-112v112zM773.333 277.334v-112h-112v112h112zM362.667 165.334h-112v112h112v-112zM250.667 576v112h112v-112h-112z" />
<glyph unicode="&#xe944;" glyph-name="telephone" d="M349.767 675.744c-2.204 2.835-4.986 5.169-8.161 6.846s-6.671 2.659-10.255 2.882c-3.584 0.222-7.174-0.32-10.533-1.592s-6.407-3.244-8.945-5.784l-38.603-38.64c-18.032-18.069-24.678-43.642-16.8-66.080 32.694-92.868 85.878-177.186 155.605-246.698 69.511-69.726 153.829-122.91 246.697-155.605 22.438-7.876 48.013-1.233 66.082 16.798l38.601 38.605c2.543 2.539 4.514 5.585 5.786 8.943s1.813 6.95 1.591 10.534c-0.222 3.584-1.203 7.078-2.88 10.253-1.677 3.179-4.011 5.961-6.848 8.162l-86.127 66.978c-3.029 2.347-6.554 3.977-10.304 4.766s-7.633 0.717-11.349-0.213l-81.762-20.42c-10.91-2.726-22.345-2.581-33.186 0.418-10.842 3.004-20.719 8.764-28.672 16.717l-91.692 91.729c-7.96 7.949-13.726 17.826-16.736 28.668s-3.16 22.276-0.437 33.195l20.459 81.759c0.93 3.718 1.003 7.6 0.214 11.351s-2.42 7.274-4.769 10.303l-66.976 86.128zM283.687 706.245c6.533 6.535 14.382 11.606 23.025 14.875s17.883 4.662 27.106 4.087c9.223-0.576 18.217-3.107 26.387-7.425s15.327-10.325 20.997-17.622l66.978-86.091c12.279-15.792 16.61-36.363 11.759-55.776l-20.42-81.762c-1.058-4.233-0.998-8.67 0.162-12.877 1.165-4.203 3.396-8.038 6.481-11.127l91.729-91.729c3.093-3.089 6.933-5.325 11.145-6.49 4.215-1.165 8.657-1.216 12.898-0.154l81.724 20.42c9.579 2.398 19.58 2.581 29.239 0.546 9.664-2.039 18.739-6.246 26.534-12.305l86.093-66.978c30.946-24.077 33.783-69.811 6.084-97.476l-38.605-38.601c-27.627-27.627-68.915-39.761-107.405-26.21-98.517 34.662-187.964 91.063-261.708 165.013-73.946 73.732-130.345 163.166-165.013 261.67-13.515 38.453-1.381 79.782 26.246 107.408l38.565 38.603zM685.47 701.205c1.732 1.738 3.793 3.118 6.059 4.059 2.27 0.941 4.702 1.425 7.155 1.425 2.458 0 4.885-0.484 7.155-1.425 2.266-0.941 4.326-2.321 6.063-4.059l93.333-93.333c1.737-1.734 3.115-3.794 4.058-6.062 0.939-2.268 1.425-4.699 1.425-7.154s-0.486-4.887-1.425-7.154c-0.943-2.268-2.321-4.328-4.058-6.062l-93.333-93.333c-3.507-3.507-8.26-5.474-13.218-5.474s-9.711 1.967-13.214 5.474c-3.507 3.503-5.474 8.26-5.474 13.214 0 4.958 1.967 9.711 5.474 13.218l61.487 61.451h-178.94c-4.949 0-9.698 1.967-13.197 5.467-3.503 3.501-5.47 8.249-5.47 13.199s1.967 9.699 5.47 13.199c3.499 3.501 8.247 5.467 13.197 5.467h178.94l-61.487 61.451c-1.741 1.734-3.119 3.794-4.062 6.062-0.939 2.268-1.425 4.699-1.425 7.154s0.486 4.887 1.425 7.154c0.943 2.268 2.321 4.328 4.062 6.062z" />
<glyph unicode="&#xe945;" glyph-name="watch" d="M554.667 554.667c0 5.658-2.249 11.084-6.246 15.085-4.002 4.001-9.429 6.249-15.087 6.249s-11.085-2.248-15.087-6.249c-3.998-4-6.246-9.427-6.246-15.085v-128h-85.333c-5.658 0-11.084-2.249-15.085-6.246-4.001-4.002-6.249-9.429-6.249-15.087s2.248-11.085 6.249-15.087c4-3.998 9.427-6.246 15.085-6.246h106.667c5.658 0 11.085 2.249 15.087 6.246 3.998 4.002 6.246 9.429 6.246 15.087v149.333zM341.333 696.875v-16.341c-24.093-4.918-45.747-18.009-61.297-37.058s-24.041-42.885-24.036-67.475v-298.667c-0.005-24.589 8.486-48.427 24.036-67.477 15.55-19.046 37.204-32.137 61.297-37.056v-16.341c0-39.253 31.829-71.125 71.125-71.125h199.083c39.253 0 71.125 31.829 71.125 71.125v16.341c24.094 4.919 45.747 18.010 61.299 37.056 15.548 19.051 24.038 42.889 24.034 67.477v149.333h21.333c5.658 0 11.085 2.249 15.087 6.246 3.998 4.002 6.246 9.429 6.246 15.087v85.333c0 5.658-2.249 11.084-6.246 15.085-4.002 4.001-9.429 6.249-15.087 6.249h-21.333v21.333c0.004 24.59-8.486 48.426-24.034 67.475-15.552 19.049-37.205 32.14-61.299 37.058v16.341c0 39.253-31.829 71.125-71.125 71.125h-199.083c-39.253 0-71.125-31.829-71.125-71.125zM362.667 640h298.667c16.973 0 33.254-6.743 45.257-18.745s18.743-28.281 18.743-45.255v-298.667c0-16.973-6.741-33.254-18.743-45.257s-28.284-18.743-45.257-18.743h-298.667c-16.974 0-33.253 6.741-45.255 18.743s-18.745 28.284-18.745 45.257v298.667c0 16.974 6.743 33.253 18.745 45.255s28.281 18.745 45.255 18.745z" />
<glyph unicode="&#xe947;" glyph-name="mouse" d="M533.333 666.667c6.225 0 12.194-2.528 16.593-7.029 4.403-4.501 6.874-10.606 6.874-16.971v-96c0-6.365-2.47-12.47-6.874-16.971-4.399-4.501-10.368-7.029-16.593-7.029s-12.194 2.528-16.593 7.029c-4.403 4.501-6.874 10.606-6.874 16.971v96c0 6.365 2.47 12.47 6.874 16.971 4.399 4.501 10.368 7.029 16.593 7.029zM721.067 282.667c0-50.923-19.78-99.759-54.985-135.765-35.209-36.006-82.957-56.235-132.749-56.235s-97.54 20.228-132.748 56.235c-35.207 36.006-54.986 84.843-54.986 135.765v288c0 50.921 19.779 99.758 54.986 135.764s82.956 56.236 132.748 56.236c49.792 0 97.54-20.229 132.749-56.236 35.204-36.007 54.985-84.843 54.985-135.764v-288zM533.333 810.667c-62.238 0-121.926-25.286-165.935-70.294s-68.732-106.054-68.732-169.706v-288c0-63.65 24.724-124.698 68.732-169.707s103.697-70.293 165.935-70.293c62.238 0 121.924 25.284 165.935 70.293 44.006 45.009 68.732 106.057 68.732 169.707v288c0 63.652-24.725 124.697-68.732 169.706-44.011 45.009-103.697 70.294-165.935 70.294v0z" />
<glyph unicode="&#xe948;" glyph-name="laptop" d="M753.331 648c5.308 0 10.394-2.107 14.144-5.858s5.858-8.838 5.858-14.142v-300h-480v300c0 5.304 2.107 10.391 5.858 14.142s8.838 5.858 14.142 5.858h439.998zM313.333 688c-15.913 0-31.174-6.321-42.426-17.574s-17.574-26.513-17.574-42.426v-340h560v340c0 15.913-6.323 31.174-17.574 42.426s-26.513 17.574-42.428 17.574h-439.998zM213.333 267.998h640c0-15.91-6.323-31.172-17.574-42.423s-26.513-17.574-42.423-17.574h-520.002c-15.913 0-31.174 6.323-42.426 17.574s-17.574 26.513-17.574 42.423v0z" />
<glyph unicode="&#xe949;" glyph-name="share" d="M681.344 647.989c-13.794 0-27.021-5.478-36.77-15.23-9.754-9.752-15.232-22.978-15.232-36.77s5.478-27.017 15.232-36.769c9.749-9.752 22.976-15.231 36.77-15.231 13.79 0 27.017 5.479 36.77 15.231 9.749 9.752 15.228 22.978 15.228 36.769s-5.478 27.018-15.228 36.77c-9.754 9.752-22.98 15.23-36.77 15.23zM594.675 595.989c0 20.335 7.147 40.022 20.194 55.619s31.164 26.109 51.179 29.698c20.015 3.589 40.653 0.026 58.308-10.066 17.651-10.092 31.194-26.070 38.259-45.138 7.061-19.069 7.194-40.013 0.375-59.17-6.822-19.156-20.16-35.305-37.683-45.62s-38.118-14.142-58.176-10.805c-20.058 3.334-38.306 13.615-51.55 29.045l-232.893-108.162c5.354-16.964 5.354-35.17 0-52.139l232.893-108.16c13.999 16.286 33.545 26.79 54.848 29.483 21.303 2.688 42.846-2.624 60.459-14.912 17.609-12.284 30.029-30.673 34.854-51.597s1.711-42.893-8.738-61.653c-10.449-18.761-27.49-32.969-47.821-39.881-20.331-6.908-42.505-6.025-62.221 2.479-19.716 8.508-35.575 24.030-44.497 43.563-8.926 19.529-10.278 41.677-3.802 62.153l-232.893 108.16c-11.529-13.436-26.896-23.019-44.035-27.46-17.138-4.437-35.225-3.524-51.828 2.624-16.603 6.144-30.925 17.229-41.039 31.761-10.115 14.528-15.537 31.808-15.537 49.51 0 17.707 5.422 34.987 15.537 49.515 10.115 14.532 24.436 25.617 41.039 31.761 16.603 6.148 34.69 7.061 51.828 2.624 17.138-4.442 32.506-14.025 44.035-27.46l232.893 108.16c-2.654 8.436-3.998 17.227-3.989 26.069zM300.009 457.323c-13.792 0-27.018-5.478-36.77-15.232-9.752-9.749-15.23-22.976-15.23-36.77 0-13.79 5.478-27.017 15.23-36.766 9.752-9.754 22.978-15.232 36.77-15.232s27.017 5.478 36.769 15.232c9.752 9.749 15.231 22.976 15.231 36.766 0 13.794-5.479 27.021-15.231 36.77-9.752 9.754-22.978 15.232-36.769 15.232zM681.344 266.654c-13.794 0-27.021-5.478-36.77-15.228-9.754-9.754-15.232-22.98-15.232-36.77s5.478-27.017 15.232-36.77c9.749-9.754 22.976-15.232 36.77-15.232 13.79 0 27.017 5.478 36.77 15.232 9.749 9.754 15.228 22.98 15.228 36.77s-5.478 27.017-15.228 36.77c-9.754 9.749-22.98 15.228-36.77 15.228z" />
<glyph unicode="&#xe94a;" glyph-name="comparison" d="M213.333 594.030c0 5.304 2.107 10.391 5.858 14.142s8.838 5.858 14.142 5.858h20c88.080 0 153.080-49.6 194.961-96.72 19.597-22.078 34.598-44.081 45.039-61.28 10.402 17.199 25.442 39.202 45.039 61.28 41.882 47.12 106.88 96.72 194.961 96.72v-40c-71.919 0-126.921-40.4-165.039-83.278-20.612-23.347-38.315-49.109-52.719-76.723 14.391-27.61 32.081-53.372 52.676-76.719 38.199-42.88 93.239-83.281 165.082-83.281v-40c-88.081 0-153.079 49.6-194.961 96.721-16.819 19.034-31.893 39.543-45.039 61.282-10.402-17.203-25.442-39.202-45.039-61.282-41.881-47.121-106.881-96.721-194.961-96.721h-20c-5.304 0-10.391 2.108-14.142 5.858s-5.858 8.841-5.858 14.144c0 5.303 2.107 10.389 5.858 14.14s8.838 5.858 14.142 5.858h20c71.92 0 126.92 40.401 165.040 83.281 20.611 23.347 38.314 49.109 52.718 76.719-14.391 27.61-32.081 53.372-52.678 76.723-38.2 42.878-93.24 83.278-165.080 83.278h-20c-5.304 0-10.391 2.107-14.142 5.858s-5.858 8.838-5.858 14.142zM733.333 515.391v157.28c0 1.9 0.542 3.761 1.562 5.364s2.475 2.883 4.198 3.689c1.719 0.806 3.635 1.105 5.521 0.861 1.882-0.243 3.661-1.018 5.12-2.234l94.4-78.64c4.8-4 4.8-11.36 0-15.36l-94.4-78.639c-1.459-1.216-3.238-1.993-5.12-2.236-1.886-0.243-3.802 0.055-5.521 0.862-1.724 0.806-3.179 2.086-4.198 3.686-1.020 1.604-1.562 3.466-1.562 5.366zM733.333 155.392v157.278c0 1.899 0.542 3.763 1.562 5.363 1.020 1.604 2.475 2.884 4.198 3.691 1.719 0.806 3.635 1.105 5.521 0.862 1.882-0.243 3.661-1.020 5.12-2.236l94.4-78.639c4.8-4.002 4.8-11.362 0-15.36l-94.4-78.639c-1.459-1.216-3.238-1.993-5.12-2.236-1.886-0.243-3.802 0.055-5.521 0.862-1.724 0.806-3.179 2.086-4.198 3.686-1.020 1.604-1.562 3.465-1.562 5.367z" />
<glyph unicode="&#xe94b;" glyph-name="chart" d="M610.667 645.334c0 10.609 4.215 20.783 11.716 28.284s17.677 11.716 28.284 11.716h80c10.607 0 20.783-4.214 28.284-11.716s11.716-17.676 11.716-28.284v-480h19.998c5.308 0 10.394-2.108 14.144-5.858s5.858-8.836 5.858-14.144c0-5.303-2.108-10.389-5.858-14.14s-8.836-5.858-14.144-5.858h-599.998c-5.304 0-10.391 2.108-14.142 5.858s-5.858 8.836-5.858 14.14c0 5.308 2.107 10.394 5.858 14.144s8.838 5.858 14.142 5.858h20v120c0 10.607 4.214 20.783 11.716 28.284s17.676 11.716 28.284 11.716h80c10.609 0 20.783-4.215 28.284-11.716s11.716-17.677 11.716-28.284v-120h40v280c0 10.607 4.214 20.783 11.716 28.284s17.677 11.716 28.284 11.716h80c10.607 0 20.783-4.215 28.284-11.716s11.716-17.677 11.716-28.284v-280h40v480zM650.667 165.334h80v480h-80v-480zM530.667 165.334v280h-80v-280h80zM330.667 165.334v120h-80v-120h80z" />
<glyph unicode="&#xe94c;" glyph-name="Frame-1468" d="M512.009 584.956l-25.498 26.205c-59.84 61.513-169.568 40.286-209.178-37.050-18.596-36.374-22.792-88.892 11.165-155.917 32.712-64.533 100.768-141.833 223.511-226.031 122.739 84.198 190.758 161.498 223.509 226.031 33.954 67.063 29.794 119.543 11.162 155.917-39.607 77.336-149.338 98.599-209.178 37.086l-25.493-26.241zM512.009 149.317c-545.192 360.26-167.865 641.441-6.259 492.707 2.133-1.955 4.233-3.983 6.259-6.080 2.005 2.096 4.092 4.112 6.255 6.045 161.57 148.84 538.931-132.378-6.255-492.672z" />
<glyph unicode="&#xe94d;" glyph-name="notif" d="M779.149 250.484c-19.315 32.934-42.116 95.317-42.116 205.517v22.485c0 136.798-109.568 248.898-244.467 249.848h-1.899c-32.41 0-64.496-6.393-94.428-18.814s-57.12-30.624-80.005-53.569c-22.886-22.944-41.019-50.179-53.363-80.142s-18.655-62.068-18.572-94.477v-25.331c0-110.199-22.8-172.582-42.117-205.517-3.95-6.775-6.031-14.481-6.031-22.323 0-7.846 2.081-15.548 6.031-22.327 3.809-6.793 9.376-12.437 16.119-16.337s14.41-5.914 22.198-5.828h129.833v-6.336c0-31.91 12.678-62.519 35.245-85.086 22.566-22.566 53.175-35.247 85.089-35.247s62.519 12.681 85.086 35.247c22.571 22.566 35.247 53.175 35.247 85.086v6.336h129.835c7.787-0.085 15.454 1.929 22.195 5.828s12.309 9.545 16.119 16.337c3.951 6.78 6.033 14.481 6.033 22.327 0 7.842-2.082 15.548-6.033 22.323zM573.001 177.332c0-21.833-8.674-42.778-24.115-58.214-15.441-15.441-36.382-24.115-58.219-24.115s-42.778 8.674-58.219 24.115c-15.441 15.437-24.116 36.382-24.116 58.214v6.336h164.668v-6.336zM746.214 224.832c-0.491-0.994-1.263-1.822-2.219-2.385s-2.057-0.832-3.162-0.781h-500.335c-1.108-0.051-2.208 0.218-3.164 0.781s-1.728 1.391-2.219 2.385c-0.556 0.964-0.849 2.057-0.849 3.17 0 1.109 0.293 2.202 0.849 3.166 21.533 37.363 47.183 106.398 47.183 224.832v25.331c-0.042 27.405 5.315 54.551 15.764 79.886s25.786 48.363 45.134 67.77c19.348 19.407 42.33 34.814 67.633 45.339 25.304 10.526 52.432 15.965 79.837 16.006h1.583c114.001-0.634 206.784-95.95 206.784-211.848v-22.485c0-118.434 25.647-187.469 47.181-224.832 0.559-0.964 0.849-2.057 0.849-3.166 0-1.114-0.29-2.206-0.849-3.17z" />
<glyph unicode="&#xe94f;" glyph-name="arr-right" d="M256 426.667c0 8.486 3.372 16.627 9.373 22.63 6.001 5.999 14.141 9.37 22.627 9.37h370.752l-137.408 137.345c-6.007 6.009-9.382 14.159-9.382 22.656s3.375 16.647 9.382 22.656c6.007 6.009 14.157 9.385 22.656 9.385s16.649-3.376 22.656-9.385l192-192.001c2.978-2.97 5.346-6.502 6.959-10.389s2.441-8.055 2.441-12.267c0-4.207-0.828-8.375-2.441-12.262s-3.981-7.42-6.959-10.394l-192-192c-6.007-6.007-14.157-9.382-22.656-9.382s-16.649 3.375-22.656 9.382c-6.007 6.012-9.382 14.161-9.382 22.656 0 8.499 3.375 16.649 9.382 22.656l137.408 137.344h-370.752c-8.487 0-16.626 3.371-22.627 9.374s-9.373 14.14-9.373 22.626z" />
<glyph unicode="&#xe950;" glyph-name="eyes-slash" d="M740.651 273.408c72.576 64.768 112.683 138.155 112.683 138.155s-128 234.667-341.333 234.667c-40.977-0.141-81.493-8.68-119.042-25.088l32.853-32.896c27.624 10.063 56.787 15.246 86.188 15.317 90.453 0 165.504-49.835 220.501-104.832 26.466-26.611 50.193-55.812 70.827-87.168-2.475-3.712-5.205-7.808-8.32-12.288-14.293-20.48-35.413-47.787-62.507-74.88-7.040-7.040-14.379-13.995-22.059-20.736l30.208-30.251zM652.689 361.383c9.519 26.628 11.281 55.415 5.082 83.012-6.199 27.593-20.109 52.86-40.107 72.856-19.998 19.998-45.261 33.906-72.858 40.106-27.593 6.2-56.38 4.436-83.008-5.085l35.115-35.115c16.397 2.347 33.114 0.843 48.828-4.393s29.995-14.060 41.707-25.772c11.716-11.712 20.54-25.993 25.775-41.707 5.235-15.718 6.741-32.435 4.395-48.832l35.072-35.072zM527.121 305.959l35.072-35.072c-26.633-9.523-55.42-11.285-83.012-5.086-27.597 6.199-52.861 20.109-72.859 40.107s-33.906 45.265-40.106 72.858c-6.2 27.593-4.436 56.38 5.085 83.012l35.115-35.115c-2.347-16.397-0.843-33.118 4.393-48.832s14.060-29.995 25.774-41.707c11.712-11.712 25.993-20.535 41.707-25.775 15.714-5.235 32.431-6.737 48.832-4.39v0zM313.6 519.51c-7.68-6.827-15.061-13.739-22.101-20.779-26.468-26.611-50.196-55.812-70.827-87.168l8.32-12.288c14.293-20.48 35.413-47.787 62.507-74.88 54.997-54.997 130.091-104.832 220.501-104.832 30.549 0 59.307 5.675 86.187 15.36l32.853-32.939c-37.551-16.405-78.063-24.947-119.040-25.088-213.333 0-341.333 234.667-341.333 234.667s40.064 73.429 112.683 138.155l30.208-30.251 0.043 0.043zM752.896 140.459l-512 512 30.208 30.208 512-512-30.208-30.208z" />
<glyph unicode="&#xe951;" glyph-name="eyes" d="M853.333 448c0 0-128 234.667-341.333 234.667s-341.333-234.667-341.333-234.667c0 0 128-234.667 341.333-234.667s341.333 234.667 341.333 234.667zM220.715 448c20.63 31.356 44.358 60.557 70.827 87.168 54.912 54.997 130.005 104.832 220.459 104.832s165.504-49.835 220.501-104.832c26.47-26.611 50.197-55.812 70.827-87.168-2.475-3.712-5.205-7.808-8.32-12.288-14.293-20.48-35.413-47.787-62.507-74.88-54.997-54.997-130.091-104.832-220.501-104.832-90.453 0-165.504 49.835-220.501 104.832-26.468 26.611-50.196 55.812-70.827 87.168h0.043zM512 554.667c-28.288 0-55.42-11.238-75.426-31.242-20.003-20.005-31.241-47.137-31.241-75.425s11.238-55.42 31.241-75.426c20.006-20.002 47.138-31.241 75.426-31.241s55.42 11.238 75.426 31.241c20.002 20.006 31.241 47.138 31.241 75.426s-11.238 55.42-31.241 75.425c-20.006 20.004-47.138 31.242-75.426 31.242zM362.667 448c0 39.607 15.733 77.589 43.739 105.594s65.987 43.739 105.594 43.739c39.607 0 77.589-15.733 105.596-43.739s43.738-65.987 43.738-105.594c0-39.607-15.731-77.589-43.738-105.596s-65.988-43.738-105.596-43.738c-39.607 0-77.589 15.731-105.594 43.738s-43.739 65.988-43.739 105.596z" />
<glyph unicode="&#xe952;" glyph-name="pin" d="M778.624 366.507c-33.536-67.968-78.976-135.68-125.44-196.48-44.079-57.318-91.209-112.226-141.184-164.48-49.98 52.254-97.108 107.162-141.184 164.48-46.464 60.8-91.904 128.512-125.44 196.48-33.92 68.672-53.376 132.992-53.376 188.16 0 84.869 33.714 166.263 93.726 226.274s141.406 93.726 226.274 93.726c84.868 0 166.263-33.714 226.274-93.726s93.726-141.405 93.726-226.274c0-55.168-19.52-119.488-53.376-188.16zM512-85.333c0 0 384 363.904 384 640 0 101.843-40.457 199.515-112.469 271.529-72.017 72.014-169.69 112.471-271.531 112.471-101.843 0-199.515-40.457-271.529-112.471s-112.471-169.686-112.471-271.529c0-276.096 384-640 384-640zM512 426.667c-33.946 0-66.505 13.487-90.51 37.491s-37.49 56.561-37.49 90.509c0 33.948 13.486 66.505 37.49 90.51s56.564 37.49 90.51 37.49c33.946 0 66.505-13.486 90.509-37.49s37.491-56.562 37.491-90.51c0-33.948-13.487-66.505-37.491-90.509s-56.563-37.491-90.509-37.491zM512 362.667c50.923 0 99.759 20.228 135.765 56.235s56.235 84.843 56.235 135.765c0 50.921-20.228 99.758-56.235 135.764s-84.843 56.236-135.765 56.236c-50.923 0-99.758-20.229-135.764-56.236s-56.236-84.843-56.236-135.764c0-50.923 20.229-99.759 56.236-135.765s84.842-56.235 135.764-56.235v0z" />
<glyph unicode="&#xe953;" glyph-name="credit" d="M85.333 618.667c0 28.29 11.238 55.421 31.242 75.425s47.135 31.242 75.425 31.242h640c28.288 0 55.42-11.238 75.426-31.242 20.002-20.004 31.241-47.135 31.241-75.425v-426.667c0-28.288-11.238-55.42-31.241-75.426-20.006-20.002-47.138-31.241-75.426-31.241h-640c-28.29 0-55.421 11.238-75.425 31.241-20.004 20.006-31.242 47.138-31.242 75.426v426.667zM192 672c-14.145 0-27.71-5.619-37.712-15.621s-15.621-23.567-15.621-37.712v-53.333h746.667v53.333c0 14.145-5.619 27.71-15.62 37.712s-23.569 15.621-37.713 15.621h-640zM885.333 458.667h-746.667v-266.667c0-14.144 5.619-27.712 15.621-37.713s23.567-15.62 37.712-15.62h640c14.144 0 27.712 5.619 37.713 15.62s15.62 23.569 15.62 37.713v266.667zM192 298.667c0 14.144 5.619 27.712 15.621 37.713s23.567 15.62 37.712 15.62h53.333c14.145 0 27.71-5.619 37.712-15.62s15.621-23.569 15.621-37.713v-53.333c0-14.144-5.619-27.712-15.621-37.713s-23.567-15.62-37.712-15.62h-53.333c-14.145 0-27.71 5.619-37.712 15.62s-15.621 23.569-15.621 37.713v53.333z" />
<glyph unicode="&#xe954;" glyph-name="clock" d="M539.635 798.987c-9.143 0.675-18.304 1.013-27.469 1.013v53.333c10.483-0.005 20.962-0.396 31.415-1.173l-3.947-53.173zM646.515 774.987c-17.097 6.597-34.658 11.927-52.535 15.947l11.682 52.053c20.425-4.587 40.533-10.667 60.053-18.24l-19.2-49.76zM719.582 737.12c-7.629 5.085-15.437 9.888-23.415 14.4l26.295 46.4c18.231-10.333 35.686-21.99 52.211-34.88l-32.798-42.080c-7.232 5.641-14.669 11.014-22.293 16.107v0.053zM817.395 641.654c-10.551 14.988-22.191 29.178-34.829 42.453l38.613 36.8c14.4-15.2 27.733-31.467 39.842-48.533l-43.627-30.72zM857.075 569.547c-3.503 8.456-7.309 16.781-11.413 24.96l47.625 24c9.421-18.725 17.442-38.12 24-58.027l-50.667-16.693c-2.867 8.701-6.050 17.293-9.545 25.76v0zM885.342 435.84c-0.435 18.33-2.214 36.599-5.333 54.665l52.531 9.067c3.575-20.587 5.653-41.493 6.187-62.4l-53.385-1.331zM878.353 353.814c1.762 9.067 3.2 18.078 4.322 27.2l52.958-6.562c-2.56-20.804-6.66-41.395-12.267-61.598l-51.413 14.238c2.453 8.802 4.587 17.707 6.4 26.722v0zM827.58 226.932c9.813 15.467 18.453 31.68 25.92 48.427l48.747-21.598c-8.533-19.2-18.398-37.653-29.598-55.36l-45.069 28.531zM776.166 162.667c6.507 6.507 12.749 13.227 18.667 20.16l40.427-34.829c-6.844-7.936-13.978-15.62-21.385-23.040l-37.709 37.709zM512.166 800c-61.393-0.004-121.838-15.149-175.98-44.093s-100.311-70.793-134.417-121.841c-34.106-51.048-55.097-109.719-61.113-170.818s3.128-122.735 26.623-179.456c23.494-56.717 60.614-106.769 108.072-145.715 47.457-38.95 103.788-65.591 164-77.568 60.215-11.981 122.453-8.926 181.201 8.896 58.752 17.818 112.201 49.852 155.614 93.261l37.709-37.709c-49.617-49.638-110.707-86.276-177.865-106.662-67.162-20.39-138.308-23.898-207.147-10.214s-133.238 44.134-187.495 88.653c-54.256 44.523-96.694 101.739-123.553 166.579s-37.309 135.305-30.426 205.154c6.884 69.844 30.889 136.914 69.889 195.265s91.79 106.182 153.694 139.254c61.903 33.072 131.011 50.365 201.193 50.347v-53.333zM485.5 693.334c7.074 0 13.854-2.81 18.854-7.811 5.005-5.001 7.812-11.784 7.812-18.856v-277.867l173.227-98.987c5.961-3.597 10.283-9.382 12.032-16.124 1.754-6.737 0.802-13.897-2.654-19.938-3.456-6.046-9.135-10.505-15.834-12.416-6.694-1.911-13.871-1.126-19.998 2.185l-186.667 106.667c-4.083 2.33-7.475 5.7-9.835 9.766-2.359 4.062-3.605 8.678-3.605 13.38v293.333c0 7.072 2.812 13.855 7.812 18.856s11.78 7.811 18.854 7.811v0z" />
<glyph unicode="&#xe955;" glyph-name="exit" d="M640 138.667c0-8.486-3.371-16.627-9.374-22.626-5.999-6.003-14.14-9.374-22.626-9.374h-512c-8.487 0-16.626 3.371-22.627 9.374-6.001 5.999-9.373 14.14-9.373 22.626v576c0 8.487 3.372 16.626 9.373 22.627s14.141 9.373 22.627 9.373h512c8.486 0 16.627-3.372 22.626-9.373 6.003-6.001 9.374-14.141 9.374-22.627v-128c0-8.487 3.371-16.626 9.374-22.627 5.999-6.001 14.14-9.373 22.626-9.373s16.627 3.372 22.626 9.373c6.003 6.001 9.374 14.141 9.374 22.627v128c0 25.461-10.116 49.879-28.117 67.882-18.005 18.004-42.423 28.118-67.883 28.118h-512c-25.461 0-49.879-10.114-67.882-28.118s-28.118-42.421-28.118-67.882v-576c0-25.459 10.114-49.877 28.118-67.883 18.004-18.001 42.421-28.117 67.882-28.117h512c25.459 0 49.877 10.116 67.883 28.117 18.001 18.005 28.117 42.423 28.117 67.883v128c0 8.486-3.371 16.627-9.374 22.626-5.999 6.003-14.14 9.374-22.626 9.374s-16.627-3.371-22.626-9.374c-6.003-5.999-9.374-14.14-9.374-22.626v-128zM1014.656 404.011c2.978 2.974 5.346 6.507 6.959 10.394s2.441 8.055 2.441 12.262c0 4.211-0.828 8.38-2.441 12.267s-3.981 7.42-6.959 10.389l-192 192.001c-6.007 6.009-14.157 9.385-22.656 9.385s-16.649-3.376-22.656-9.385c-6.007-6.009-9.382-14.159-9.382-22.656s3.375-16.647 9.382-22.656l137.408-137.345h-562.752c-8.487 0-16.626-3.371-22.627-9.37-6.001-6.003-9.373-14.144-9.373-22.63s3.372-16.623 9.373-22.626c6.001-6.003 14.141-9.374 22.627-9.374h562.752l-137.408-137.344c-6.007-6.007-9.382-14.157-9.382-22.656 0-8.495 3.375-16.644 9.382-22.656 6.007-6.007 14.157-9.382 22.656-9.382s16.649 3.375 22.656 9.382l192 192z" />
<glyph unicode="&#xe956;" glyph-name="fav" d="M512.009 664.1l-38.242 39.308c-89.763 92.27-254.355 60.429-313.77-55.575-27.894-54.562-34.188-133.337 16.747-233.872 49.068-96.806 151.151-212.753 335.265-339.051 184.111 126.298 286.14 242.244 335.262 339.051 50.935 100.588 44.693 179.31 16.747 233.872-59.413 116.004-224.004 147.898-313.766 55.628l-38.242-39.361zM512.009 10.641c-817.786 540.388-251.796 962.161-9.387 739.061 3.2-2.934 6.345-5.974 9.387-9.12 3.008 3.144 6.14 6.168 9.387 9.067 242.355 223.26 808.397-198.566-9.387-739.008z" />
</font>
</defs>
</svg>
